{
    "asset" : {
        "generator" : "Khronos glTF Blender I/O v1.6.16",
        "version" : "2.0"
    },
    "scene" : 0,
    "scenes" : [
        {
            "name" : "Scene",
            "nodes" : [
                0
            ]
        }
    ],
    "nodes" : [
        {
            "mesh" : 0,
            "name" : "cube-col",
            "translation" : [
                11.769186973571777,
                4,
                85.61712646484375
            ]
        }
    ],
    "materials" : [
        {
            "alphaCutoff" : 0.5,
            "alphaMode" : "MASK",
            "name" : "wall_base.003",
            "pbrMetallicRoughness" : {
                "baseColorTexture" : {
                    "index" : 0
                },
                "metallicFactor" : 0
            }
        },
        {
            "name" : "wall_wall",
            "pbrMetallicRoughness" : {
                "baseColorTexture" : {
                    "index" : 1
                },
                "metallicFactor" : 0
            }
        },
        {
            "alphaCutoff" : 0.5,
            "alphaMode" : "MASK",
            "name" : "wall_middle.001",
            "pbrMetallicRoughness" : {
                "baseColorTexture" : {
                    "index" : 2
                },
                "metallicFactor" : 0
            }
        },
        {
            "alphaCutoff" : 0.5,
            "alphaMode" : "MASK",
            "name" : "wall_middle.003",
            "pbrMetallicRoughness" : {
                "baseColorTexture" : {
                    "index" : 3
                },
                "metallicFactor" : 0
            }
        },
        {
            "alphaCutoff" : 0.5,
            "alphaMode" : "MASK",
            "name" : "wall_top.001",
            "pbrMetallicRoughness" : {
                "baseColorTexture" : {
                    "index" : 4
                },
                "metallicFactor" : 0
            }
        }
    ],
    "meshes" : [
        {
            "name" : "Cube.007",
            "primitives" : [
                {
                    "attributes" : {
                        "POSITION" : 0,
                        "NORMAL" : 1,
                        "TEXCOORD_0" : 2
                    },
                    "indices" : 3,
                    "material" : 0
                },
                {
                    "attributes" : {
                        "POSITION" : 4,
                        "NORMAL" : 5,
                        "TEXCOORD_0" : 6
                    },
                    "indices" : 7,
                    "material" : 1
                },
                {
                    "attributes" : {
                        "POSITION" : 8,
                        "NORMAL" : 9,
                        "TEXCOORD_0" : 10
                    },
                    "indices" : 11,
                    "material" : 2
                },
                {
                    "attributes" : {
                        "POSITION" : 12,
                        "NORMAL" : 13,
                        "TEXCOORD_0" : 14
                    },
                    "indices" : 15,
                    "material" : 3
                },
                {
                    "attributes" : {
                        "POSITION" : 16,
                        "NORMAL" : 17,
                        "TEXCOORD_0" : 18
                    },
                    "indices" : 19,
                    "material" : 4
                }
            ]
        }
    ],
    "textures" : [
        {
            "sampler" : 0,
            "source" : 0
        },
        {
            "sampler" : 0,
            "source" : 1
        },
        {
            "sampler" : 0,
            "source" : 2
        },
        {
            "sampler" : 0,
            "source" : 2
        },
        {
            "sampler" : 0,
            "source" : 3
        }
    ],
    "images" : [
        {
            "bufferView" : 4,
            "mimeType" : "image/png",
            "name" : "wall_base"
        },
        {
            "bufferView" : 9,
            "mimeType" : "image/png",
            "name" : "wall_wall"
        },
        {
            "bufferView" : 14,
            "mimeType" : "image/png",
            "name" : "wall_middle"
        },
        {
            "bufferView" : 23,
            "mimeType" : "image/png",
            "name" : "wall_top"
        }
    ],
    "accessors" : [
        {
            "bufferView" : 0,
            "componentType" : 5126,
            "count" : 64,
            "max" : [
                5.010073661804199,
                -0.7073535919189453,
                8.72027587890625
            ],
            "min" : [
                -10.9899263381958,
                -4.707396030426025,
                -7.27972412109375
            ],
            "type" : "VEC3"
        },
        {
            "bufferView" : 1,
            "componentType" : 5126,
            "count" : 64,
            "type" : "VEC3"
        },
        {
            "bufferView" : 2,
            "componentType" : 5126,
            "count" : 64,
            "type" : "VEC2"
        },
        {
            "bufferView" : 3,
            "componentType" : 5123,
            "count" : 96,
            "type" : "SCALAR"
        },
        {
            "bufferView" : 5,
            "componentType" : 5126,
            "count" : 192,
            "max" : [
                5.010073661804199,
                11.292646408081055,
                8.72027587890625
            ],
            "min" : [
                -10.9899263381958,
                -4.707353591918945,
                -7.27972412109375
            ],
            "type" : "VEC3"
        },
        {
            "bufferView" : 6,
            "componentType" : 5126,
            "count" : 192,
            "type" : "VEC3"
        },
        {
            "bufferView" : 7,
            "componentType" : 5126,
            "count" : 192,
            "type" : "VEC2"
        },
        {
            "bufferView" : 8,
            "componentType" : 5123,
            "count" : 288,
            "type" : "SCALAR"
        },
        {
            "bufferView" : 10,
            "componentType" : 5126,
            "count" : 36,
            "max" : [
                5.010073661804199,
                7.292646408081055,
                8.72027587890625
            ],
            "min" : [
                -10.9899263381958,
                -0.7073535919189453,
                -7.27972412109375
            ],
            "type" : "VEC3"
        },
        {
            "bufferView" : 11,
            "componentType" : 5126,
            "count" : 36,
            "type" : "VEC3"
        },
        {
            "bufferView" : 12,
            "componentType" : 5126,
            "count" : 36,
            "type" : "VEC2"
        },
        {
            "bufferView" : 13,
            "componentType" : 5123,
            "count" : 54,
            "type" : "SCALAR"
        },
        {
            "bufferView" : 15,
            "componentType" : 5126,
            "count" : 28,
            "max" : [
                5.010073661804199,
                7.292646408081055,
                8.72027587890625
            ],
            "min" : [
                -10.9899263381958,
                -0.7073535919189453,
                -7.27972412109375
            ],
            "type" : "VEC3"
        },
        {
            "bufferView" : 16,
            "componentType" : 5126,
            "count" : 28,
            "type" : "VEC3"
        },
        {
            "bufferView" : 17,
            "componentType" : 5126,
            "count" : 28,
            "type" : "VEC2"
        },
        {
            "bufferView" : 18,
            "componentType" : 5123,
            "count" : 42,
            "type" : "SCALAR"
        },
        {
            "bufferView" : 19,
            "componentType" : 5126,
            "count" : 64,
            "max" : [
                5.010073661804199,
                11.292646408081055,
                8.72027587890625
            ],
            "min" : [
                -10.9899263381958,
                7.292646408081055,
                -7.27972412109375
            ],
            "type" : "VEC3"
        },
        {
            "bufferView" : 20,
            "componentType" : 5126,
            "count" : 64,
            "type" : "VEC3"
        },
        {
            "bufferView" : 21,
            "componentType" : 5126,
            "count" : 64,
            "type" : "VEC2"
        },
        {
            "bufferView" : 22,
            "componentType" : 5123,
            "count" : 96,
            "type" : "SCALAR"
        }
    ],
    "bufferViews" : [
        {
            "buffer" : 0,
            "byteLength" : 768,
            "byteOffset" : 0
        },
        {
            "buffer" : 0,
            "byteLength" : 768,
            "byteOffset" : 768
        },
        {
            "buffer" : 0,
            "byteLength" : 512,
            "byteOffset" : 1536
        },
        {
            "buffer" : 0,
            "byteLength" : 192,
            "byteOffset" : 2048
        },
        {
            "buffer" : 0,
            "byteLength" : 370,
            "byteOffset" : 2240
        },
        {
            "buffer" : 0,
            "byteLength" : 2304,
            "byteOffset" : 2612
        },
        {
            "buffer" : 0,
            "byteLength" : 2304,
            "byteOffset" : 4916
        },
        {
            "buffer" : 0,
            "byteLength" : 1536,
            "byteOffset" : 7220
        },
        {
            "buffer" : 0,
            "byteLength" : 576,
            "byteOffset" : 8756
        },
        {
            "buffer" : 0,
            "byteLength" : 403,
            "byteOffset" : 9332
        },
        {
            "buffer" : 0,
            "byteLength" : 432,
            "byteOffset" : 9736
        },
        {
            "buffer" : 0,
            "byteLength" : 432,
            "byteOffset" : 10168
        },
        {
            "buffer" : 0,
            "byteLength" : 288,
            "byteOffset" : 10600
        },
        {
            "buffer" : 0,
            "byteLength" : 108,
            "byteOffset" : 10888
        },
        {
            "buffer" : 0,
            "byteLength" : 417,
            "byteOffset" : 10996
        },
        {
            "buffer" : 0,
            "byteLength" : 336,
            "byteOffset" : 11416
        },
        {
            "buffer" : 0,
            "byteLength" : 336,
            "byteOffset" : 11752
        },
        {
            "buffer" : 0,
            "byteLength" : 224,
            "byteOffset" : 12088
        },
        {
            "buffer" : 0,
            "byteLength" : 84,
            "byteOffset" : 12312
        },
        {
            "buffer" : 0,
            "byteLength" : 768,
            "byteOffset" : 12396
        },
        {
            "buffer" : 0,
            "byteLength" : 768,
            "byteOffset" : 13164
        },
        {
            "buffer" : 0,
            "byteLength" : 512,
            "byteOffset" : 13932
        },
        {
            "buffer" : 0,
            "byteLength" : 192,
            "byteOffset" : 14444
        },
        {
            "buffer" : 0,
            "byteLength" : 384,
            "byteOffset" : 14636
        }
    ],
    "samplers" : [
        {
            "magFilter" : 9728,
            "minFilter" : 9984
        }
    ],
    "buffers" : [
        {
            "byteLength" : 15020,
            "uri" : "data:application/octet-stream;base64,"
        }
    ]
}
