{
    "asset" : {
        "generator" : "Khronos glTF Blender I/O v1.6.16",
        "version" : "2.0"
    },
    "scene" : 0,
    "scenes" : [
        {
            "name" : "Scene",
            "nodes" : [
                0
            ]
        }
    ],
    "nodes" : [
        {
            "mesh" : 0,
            "name" : "entryway_hive-col"
        }
    ],
    "materials" : [
        {
            "alphaCutoff" : 0.5,
            "alphaMode" : "MASK",
            "name" : "sandstone_brick.009",
            "pbrMetallicRoughness" : {
                "baseColorTexture" : {
                    "index" : 0
                },
                "metallicFactor" : 0
            }
        },
        {
            "alphaCutoff" : 0.5,
            "alphaMode" : "MASK",
            "name" : "sandstone.012",
            "pbrMetallicRoughness" : {
                "baseColorTexture" : {
                    "index" : 1
                },
                "metallicFactor" : 0
            }
        },
        {
            "alphaCutoff" : 0.5,
            "alphaMode" : "MASK",
            "name" : "blue_clean.008",
            "pbrMetallicRoughness" : {
                "baseColorTexture" : {
                    "index" : 2
                },
                "metallicFactor" : 0.304843008518219,
                "roughnessFactor" : 0.4772079885005951
            }
        },
        {
            "alphaCutoff" : 0.5,
            "alphaMode" : "MASK",
            "doubleSided" : true,
            "name" : "catwalk_rail",
            "pbrMetallicRoughness" : {
                "baseColorTexture" : {
                    "index" : 3
                },
                "roughnessFactor" : 0.3917378783226013
            }
        },
        {
            "alphaCutoff" : 0.5,
            "alphaMode" : "MASK",
            "name" : "sandstone_brick.006",
            "pbrMetallicRoughness" : {
                "baseColorTexture" : {
                    "index" : 4
                },
                "metallicFactor" : 0
            }
        },
        {
            "alphaCutoff" : 0.5,
            "alphaMode" : "MASK",
            "name" : "sandstone.009",
            "pbrMetallicRoughness" : {
                "baseColorTexture" : {
                    "index" : 5
                },
                "metallicFactor" : 0
            }
        },
        {
            "alphaCutoff" : 0.5,
            "alphaMode" : "MASK",
            "name" : "sandstone_vined_brick.005",
            "pbrMetallicRoughness" : {
                "baseColorTexture" : {
                    "index" : 6
                },
                "metallicFactor" : 0
            }
        }
    ],
    "meshes" : [
        {
            "name" : "Cylinder.005",
            "primitives" : [
                {
                    "attributes" : {
                        "POSITION" : 0,
                        "NORMAL" : 1,
                        "TEXCOORD_0" : 2
                    },
                    "indices" : 3,
                    "material" : 0
                },
                {
                    "attributes" : {
                        "POSITION" : 4,
                        "NORMAL" : 5,
                        "TEXCOORD_0" : 6
                    },
                    "indices" : 7,
                    "material" : 1
                },
                {
                    "attributes" : {
                        "POSITION" : 8,
                        "NORMAL" : 9,
                        "TEXCOORD_0" : 10
                    },
                    "indices" : 11,
                    "material" : 2
                },
                {
                    "attributes" : {
                        "POSITION" : 12,
                        "NORMAL" : 13,
                        "TEXCOORD_0" : 14
                    },
                    "indices" : 15,
                    "material" : 3
                },
                {
                    "attributes" : {
                        "POSITION" : 16,
                        "NORMAL" : 17,
                        "TEXCOORD_0" : 18
                    },
                    "indices" : 19,
                    "material" : 4
                },
                {
                    "attributes" : {
                        "POSITION" : 20,
                        "NORMAL" : 21,
                        "TEXCOORD_0" : 22
                    },
                    "indices" : 23,
                    "material" : 5
                },
                {
                    "attributes" : {
                        "POSITION" : 24,
                        "NORMAL" : 25,
                        "TEXCOORD_0" : 26
                    },
                    "indices" : 27,
                    "material" : 6
                }
            ]
        }
    ],
    "textures" : [
        {
            "sampler" : 0,
            "source" : 0
        },
        {
            "sampler" : 0,
            "source" : 1
        },
        {
            "sampler" : 0,
            "source" : 2
        },
        {
            "sampler" : 0,
            "source" : 3
        },
        {
            "sampler" : 0,
            "source" : 0
        },
        {
            "sampler" : 0,
            "source" : 1
        },
        {
            "sampler" : 0,
            "source" : 4
        }
    ],
    "images" : [
        {
            "bufferView" : 4,
            "mimeType" : "image/png",
            "name" : "sandstone_brick"
        },
        {
            "bufferView" : 9,
            "mimeType" : "image/png",
            "name" : "sandstone"
        },
        {
            "bufferView" : 14,
            "mimeType" : "image/png",
            "name" : "blue_clean"
        },
        {
            "bufferView" : 19,
            "mimeType" : "image/png",
            "name" : "catwalk_rail"
        },
        {
            "bufferView" : 32,
            "mimeType" : "image/png",
            "name" : "sandstone_vined_brick"
        }
    ],
    "accessors" : [
        {
            "bufferView" : 0,
            "componentType" : 5126,
            "count" : 1043,
            "max" : [
                -60.39479064941406,
                -43.04376983642578,
                56.394859313964844
            ],
            "min" : [
                -119.90945434570312,
                -107.36820983886719,
                -0.08216476440429688
            ],
            "type" : "VEC3"
        },
        {
            "bufferView" : 1,
            "componentType" : 5126,
            "count" : 1043,
            "type" : "VEC3"
        },
        {
            "bufferView" : 2,
            "componentType" : 5126,
            "count" : 1043,
            "type" : "VEC2"
        },
        {
            "bufferView" : 3,
            "componentType" : 5123,
            "count" : 2142,
            "type" : "SCALAR"
        },
        {
            "bufferView" : 5,
            "componentType" : 5126,
            "count" : 402,
            "max" : [
                -60.29134750366211,
                -49.30857467651367,
                56.437381744384766
            ],
            "min" : [
                -117.38277435302734,
                -74.66399383544922,
                19.79234504699707
            ],
            "type" : "VEC3"
        },
        {
            "bufferView" : 6,
            "componentType" : 5126,
            "count" : 402,
            "type" : "VEC3"
        },
        {
            "bufferView" : 7,
            "componentType" : 5126,
            "count" : 402,
            "type" : "VEC2"
        },
        {
            "bufferView" : 8,
            "componentType" : 5123,
            "count" : 660,
            "type" : "SCALAR"
        },
        {
            "bufferView" : 10,
            "componentType" : 5126,
            "count" : 4,
            "max" : [
                -111.7734146118164,
                -70.55420684814453,
                7.1912384033203125
            ],
            "min" : [
                -113.54375457763672,
                -73.96939849853516,
                5.181740760803223
            ],
            "type" : "VEC3"
        },
        {
            "bufferView" : 11,
            "componentType" : 5126,
            "count" : 4,
            "type" : "VEC3"
        },
        {
            "bufferView" : 12,
            "componentType" : 5126,
            "count" : 4,
            "type" : "VEC2"
        },
        {
            "bufferView" : 13,
            "componentType" : 5123,
            "count" : 6,
            "type" : "SCALAR"
        },
        {
            "bufferView" : 15,
            "componentType" : 5126,
            "count" : 16,
            "max" : [
                -69.44103240966797,
                -56.073543548583984,
                45.69842529296875
            ],
            "min" : [
                -110.75472259521484,
                -62.69233703613281,
                9.947123527526855
            ],
            "type" : "VEC3"
        },
        {
            "bufferView" : 16,
            "componentType" : 5126,
            "count" : 16,
            "type" : "VEC3"
        },
        {
            "bufferView" : 17,
            "componentType" : 5126,
            "count" : 16,
            "type" : "VEC2"
        },
        {
            "bufferView" : 18,
            "componentType" : 5123,
            "count" : 24,
            "type" : "SCALAR"
        },
        {
            "bufferView" : 20,
            "componentType" : 5126,
            "count" : 36,
            "max" : [
                -101.73949432373047,
                -73.95899200439453,
                15.422996520996094
            ],
            "min" : [
                -104.27891540527344,
                -102.32146453857422,
                12.922157287597656
            ],
            "type" : "VEC3"
        },
        {
            "bufferView" : 21,
            "componentType" : 5126,
            "count" : 36,
            "type" : "VEC3"
        },
        {
            "bufferView" : 22,
            "componentType" : 5126,
            "count" : 36,
            "type" : "VEC2"
        },
        {
            "bufferView" : 23,
            "componentType" : 5123,
            "count" : 54,
            "type" : "SCALAR"
        },
        {
            "bufferView" : 24,
            "componentType" : 5126,
            "count" : 47,
            "max" : [
                -103.38878631591797,
                -48.42877197265625,
                43.679771423339844
            ],
            "min" : [
                -108.1246337890625,
                -54.36568069458008,
                42.70735549926758
            ],
            "type" : "VEC3"
        },
        {
            "bufferView" : 25,
            "componentType" : 5126,
            "count" : 47,
            "type" : "VEC3"
        },
        {
            "bufferView" : 26,
            "componentType" : 5126,
            "count" : 47,
            "type" : "VEC2"
        },
        {
            "bufferView" : 27,
            "componentType" : 5123,
            "count" : 75,
            "type" : "SCALAR"
        },
        {
            "bufferView" : 28,
            "componentType" : 5126,
            "count" : 30,
            "max" : [
                -107.26895141601562,
                -67.76385498046875,
                13.64516830444336
            ],
            "min" : [
                -114.80886840820312,
                -68.7923355102539,
                6.189518451690674
            ],
            "type" : "VEC3"
        },
        {
            "bufferView" : 29,
            "componentType" : 5126,
            "count" : 30,
            "type" : "VEC3"
        },
        {
            "bufferView" : 30,
            "componentType" : 5126,
            "count" : 30,
            "type" : "VEC2"
        },
        {
            "bufferView" : 31,
            "componentType" : 5123,
            "count" : 48,
            "type" : "SCALAR"
        }
    ],
    "bufferViews" : [
        {
            "buffer" : 0,
            "byteLength" : 12516,
            "byteOffset" : 0
        },
        {
            "buffer" : 0,
            "byteLength" : 12516,
            "byteOffset" : 12516
        },
        {
            "buffer" : 0,
            "byteLength" : 8344,
            "byteOffset" : 25032
        },
        {
            "buffer" : 0,
            "byteLength" : 4284,
            "byteOffset" : 33376
        },
        {
            "buffer" : 0,
            "byteLength" : 318,
            "byteOffset" : 37660
        },
        {
            "buffer" : 0,
            "byteLength" : 4824,
            "byteOffset" : 37980
        },
        {
            "buffer" : 0,
            "byteLength" : 4824,
            "byteOffset" : 42804
        },
        {
            "buffer" : 0,
            "byteLength" : 3216,
            "byteOffset" : 47628
        },
        {
            "buffer" : 0,
            "byteLength" : 1320,
            "byteOffset" : 50844
        },
        {
            "buffer" : 0,
            "byteLength" : 544,
            "byteOffset" : 52164
        },
        {
            "buffer" : 0,
            "byteLength" : 48,
            "byteOffset" : 52708
        },
        {
            "buffer" : 0,
            "byteLength" : 48,
            "byteOffset" : 52756
        },
        {
            "buffer" : 0,
            "byteLength" : 32,
            "byteOffset" : 52804
        },
        {
            "buffer" : 0,
            "byteLength" : 12,
            "byteOffset" : 52836
        },
        {
            "buffer" : 0,
            "byteLength" : 176,
            "byteOffset" : 52848
        },
        {
            "buffer" : 0,
            "byteLength" : 192,
            "byteOffset" : 53024
        },
        {
            "buffer" : 0,
            "byteLength" : 192,
            "byteOffset" : 53216
        },
        {
            "buffer" : 0,
            "byteLength" : 128,
            "byteOffset" : 53408
        },
        {
            "buffer" : 0,
            "byteLength" : 48,
            "byteOffset" : 53536
        },
        {
            "buffer" : 0,
            "byteLength" : 263,
            "byteOffset" : 53584
        },
        {
            "buffer" : 0,
            "byteLength" : 432,
            "byteOffset" : 53848
        },
        {
            "buffer" : 0,
            "byteLength" : 432,
            "byteOffset" : 54280
        },
        {
            "buffer" : 0,
            "byteLength" : 288,
            "byteOffset" : 54712
        },
        {
            "buffer" : 0,
            "byteLength" : 108,
            "byteOffset" : 55000
        },
        {
            "buffer" : 0,
            "byteLength" : 564,
            "byteOffset" : 55108
        },
        {
            "buffer" : 0,
            "byteLength" : 564,
            "byteOffset" : 55672
        },
        {
            "buffer" : 0,
            "byteLength" : 376,
            "byteOffset" : 56236
        },
        {
            "buffer" : 0,
            "byteLength" : 150,
            "byteOffset" : 56612
        },
        {
            "buffer" : 0,
            "byteLength" : 360,
            "byteOffset" : 56764
        },
        {
            "buffer" : 0,
            "byteLength" : 360,
            "byteOffset" : 57124
        },
        {
            "buffer" : 0,
            "byteLength" : 240,
            "byteOffset" : 57484
        },
        {
            "buffer" : 0,
            "byteLength" : 96,
            "byteOffset" : 57724
        },
        {
            "buffer" : 0,
            "byteLength" : 568,
            "byteOffset" : 57820
        }
    ],
    "samplers" : [
        {
            "magFilter" : 9728,
            "minFilter" : 9984
        }
    ],
    "buffers" : [
        {
            "byteLength" : 58388,
            "uri" : "data:application/octet-stream;base64,"
        }
    ]
}
