{
    "asset" : {
        "generator" : "Khronos glTF Blender I/O v1.6.16",
        "version" : "2.0"
    },
    "scene" : 0,
    "scenes" : [
        {
            "name" : "Scene",
            "nodes" : [
                0
            ]
        }
    ],
    "nodes" : [
        {
            "mesh" : 0,
            "name" : "pillar_3-col",
            "translation" : [
                -6.1978840827941895,
                -8,
                71.69259643554688
            ]
        }
    ],
    "materials" : [
        {
            "alphaCutoff" : 0.5,
            "alphaMode" : "MASK",
            "name" : "wall_base.004",
            "pbrMetallicRoughness" : {
                "baseColorTexture" : {
                    "index" : 0
                },
                "metallicFactor" : 0
            }
        },
        {
            "alphaCutoff" : 0.5,
            "alphaMode" : "MASK",
            "name" : "sandstone.005",
            "pbrMetallicRoughness" : {
                "baseColorTexture" : {
                    "index" : 1
                },
                "metallicFactor" : 0
            }
        },
        {
            "doubleSided" : true,
            "name" : "wall_wall.002",
            "pbrMetallicRoughness" : {
                "baseColorTexture" : {
                    "index" : 2
                },
                "metallicFactor" : 0
            }
        },
        {
            "alphaCutoff" : 0.5,
            "alphaMode" : "MASK",
            "name" : "wall_middle.004",
            "pbrMetallicRoughness" : {
                "baseColorTexture" : {
                    "index" : 3
                },
                "metallicFactor" : 0
            }
        },
        {
            "alphaCutoff" : 0.5,
            "alphaMode" : "MASK",
            "name" : "wall_top.004",
            "pbrMetallicRoughness" : {
                "baseColorTexture" : {
                    "index" : 4
                },
                "metallicFactor" : 0
            }
        },
        {
            "alphaCutoff" : 0.5,
            "alphaMode" : "MASK",
            "name" : "sandstone.006",
            "pbrMetallicRoughness" : {
                "baseColorTexture" : {
                    "index" : 5
                },
                "metallicFactor" : 0
            }
        }
    ],
    "meshes" : [
        {
            "name" : "Cube.006",
            "primitives" : [
                {
                    "attributes" : {
                        "POSITION" : 0,
                        "NORMAL" : 1,
                        "TEXCOORD_0" : 2
                    },
                    "indices" : 3,
                    "material" : 0
                },
                {
                    "attributes" : {
                        "POSITION" : 4,
                        "NORMAL" : 5,
                        "TEXCOORD_0" : 6
                    },
                    "indices" : 7,
                    "material" : 1
                },
                {
                    "attributes" : {
                        "POSITION" : 8,
                        "NORMAL" : 9,
                        "TEXCOORD_0" : 10
                    },
                    "indices" : 11,
                    "material" : 2
                },
                {
                    "attributes" : {
                        "POSITION" : 12,
                        "NORMAL" : 13,
                        "TEXCOORD_0" : 14
                    },
                    "indices" : 15,
                    "material" : 3
                },
                {
                    "attributes" : {
                        "POSITION" : 16,
                        "NORMAL" : 17,
                        "TEXCOORD_0" : 18
                    },
                    "indices" : 19,
                    "material" : 4
                },
                {
                    "attributes" : {
                        "POSITION" : 20,
                        "NORMAL" : 21,
                        "TEXCOORD_0" : 22
                    },
                    "indices" : 23,
                    "material" : 5
                }
            ]
        }
    ],
    "textures" : [
        {
            "sampler" : 0,
            "source" : 0
        },
        {
            "sampler" : 0,
            "source" : 1
        },
        {
            "sampler" : 0,
            "source" : 2
        },
        {
            "sampler" : 0,
            "source" : 3
        },
        {
            "sampler" : 0,
            "source" : 4
        },
        {
            "sampler" : 0,
            "source" : 1
        }
    ],
    "images" : [
        {
            "bufferView" : 4,
            "mimeType" : "image/png",
            "name" : "wall_base"
        },
        {
            "bufferView" : 9,
            "mimeType" : "image/png",
            "name" : "sandstone"
        },
        {
            "bufferView" : 14,
            "mimeType" : "image/png",
            "name" : "wall_wall"
        },
        {
            "bufferView" : 19,
            "mimeType" : "image/png",
            "name" : "wall_middle"
        },
        {
            "bufferView" : 24,
            "mimeType" : "image/png",
            "name" : "wall_top"
        }
    ],
    "accessors" : [
        {
            "bufferView" : 0,
            "componentType" : 5126,
            "count" : 24,
            "max" : [
                15.728841781616211,
                12,
                1.1568562984466553
            ],
            "min" : [
                6.97727632522583,
                8,
                -8.948579788208008
            ],
            "type" : "VEC3"
        },
        {
            "bufferView" : 1,
            "componentType" : 5126,
            "count" : 24,
            "type" : "VEC3"
        },
        {
            "bufferView" : 2,
            "componentType" : 5126,
            "count" : 24,
            "type" : "VEC2"
        },
        {
            "bufferView" : 3,
            "componentType" : 5123,
            "count" : 36,
            "type" : "SCALAR"
        },
        {
            "bufferView" : 5,
            "componentType" : 5126,
            "count" : 6,
            "max" : [
                15.353053092956543,
                8,
                0.7229399681091309
            ],
            "min" : [
                7.353053092956543,
                8,
                -8.514663696289062
            ],
            "type" : "VEC3"
        },
        {
            "bufferView" : 6,
            "componentType" : 5126,
            "count" : 6,
            "type" : "VEC3"
        },
        {
            "bufferView" : 7,
            "componentType" : 5126,
            "count" : 6,
            "type" : "VEC2"
        },
        {
            "bufferView" : 8,
            "componentType" : 5123,
            "count" : 12,
            "type" : "SCALAR"
        },
        {
            "bufferView" : 10,
            "componentType" : 5126,
            "count" : 96,
            "max" : [
                15.728841781616211,
                24.000011444091797,
                1.1568562984466553
            ],
            "min" : [
                6.977161407470703,
                12,
                -8.948579788208008
            ],
            "type" : "VEC3"
        },
        {
            "bufferView" : 11,
            "componentType" : 5126,
            "count" : 96,
            "type" : "VEC3"
        },
        {
            "bufferView" : 12,
            "componentType" : 5126,
            "count" : 96,
            "type" : "VEC2"
        },
        {
            "bufferView" : 13,
            "componentType" : 5123,
            "count" : 144,
            "type" : "SCALAR"
        },
        {
            "bufferView" : 15,
            "componentType" : 5126,
            "count" : 24,
            "max" : [
                15.353008270263672,
                20.00001335144043,
                0.7229399681091309
            ],
            "min" : [
                7.352978706359863,
                15.999998092651367,
                -8.514663696289062
            ],
            "type" : "VEC3"
        },
        {
            "bufferView" : 16,
            "componentType" : 5126,
            "count" : 24,
            "type" : "VEC3"
        },
        {
            "bufferView" : 17,
            "componentType" : 5126,
            "count" : 24,
            "type" : "VEC2"
        },
        {
            "bufferView" : 18,
            "componentType" : 5123,
            "count" : 36,
            "type" : "SCALAR"
        },
        {
            "bufferView" : 20,
            "componentType" : 5126,
            "count" : 24,
            "max" : [
                15.728726387023926,
                28.00001335144043,
                1.1568562984466553
            ],
            "min" : [
                6.977144718170166,
                23.999996185302734,
                -8.948579788208008
            ],
            "type" : "VEC3"
        },
        {
            "bufferView" : 21,
            "componentType" : 5126,
            "count" : 24,
            "type" : "VEC3"
        },
        {
            "bufferView" : 22,
            "componentType" : 5126,
            "count" : 24,
            "type" : "VEC2"
        },
        {
            "bufferView" : 23,
            "componentType" : 5123,
            "count" : 36,
            "type" : "SCALAR"
        },
        {
            "bufferView" : 25,
            "componentType" : 5126,
            "count" : 54,
            "max" : [
                15.728841781616211,
                28.00001335144043,
                1.1568562984466553
            ],
            "min" : [
                6.977144718170166,
                8,
                -8.948579788208008
            ],
            "type" : "VEC3"
        },
        {
            "bufferView" : 26,
            "componentType" : 5126,
            "count" : 54,
            "type" : "VEC3"
        },
        {
            "bufferView" : 27,
            "componentType" : 5126,
            "count" : 54,
            "type" : "VEC2"
        },
        {
            "bufferView" : 28,
            "componentType" : 5123,
            "count" : 84,
            "type" : "SCALAR"
        }
    ],
    "bufferViews" : [
        {
            "buffer" : 0,
            "byteLength" : 288,
            "byteOffset" : 0
        },
        {
            "buffer" : 0,
            "byteLength" : 288,
            "byteOffset" : 288
        },
        {
            "buffer" : 0,
            "byteLength" : 192,
            "byteOffset" : 576
        },
        {
            "buffer" : 0,
            "byteLength" : 72,
            "byteOffset" : 768
        },
        {
            "buffer" : 0,
            "byteLength" : 370,
            "byteOffset" : 840
        },
        {
            "buffer" : 0,
            "byteLength" : 72,
            "byteOffset" : 1212
        },
        {
            "buffer" : 0,
            "byteLength" : 72,
            "byteOffset" : 1284
        },
        {
            "buffer" : 0,
            "byteLength" : 48,
            "byteOffset" : 1356
        },
        {
            "buffer" : 0,
            "byteLength" : 24,
            "byteOffset" : 1404
        },
        {
            "buffer" : 0,
            "byteLength" : 544,
            "byteOffset" : 1428
        },
        {
            "buffer" : 0,
            "byteLength" : 1152,
            "byteOffset" : 1972
        },
        {
            "buffer" : 0,
            "byteLength" : 1152,
            "byteOffset" : 3124
        },
        {
            "buffer" : 0,
            "byteLength" : 768,
            "byteOffset" : 4276
        },
        {
            "buffer" : 0,
            "byteLength" : 288,
            "byteOffset" : 5044
        },
        {
            "buffer" : 0,
            "byteLength" : 403,
            "byteOffset" : 5332
        },
        {
            "buffer" : 0,
            "byteLength" : 288,
            "byteOffset" : 5736
        },
        {
            "buffer" : 0,
            "byteLength" : 288,
            "byteOffset" : 6024
        },
        {
            "buffer" : 0,
            "byteLength" : 192,
            "byteOffset" : 6312
        },
        {
            "buffer" : 0,
            "byteLength" : 72,
            "byteOffset" : 6504
        },
        {
            "buffer" : 0,
            "byteLength" : 417,
            "byteOffset" : 6576
        },
        {
            "buffer" : 0,
            "byteLength" : 288,
            "byteOffset" : 6996
        },
        {
            "buffer" : 0,
            "byteLength" : 288,
            "byteOffset" : 7284
        },
        {
            "buffer" : 0,
            "byteLength" : 192,
            "byteOffset" : 7572
        },
        {
            "buffer" : 0,
            "byteLength" : 72,
            "byteOffset" : 7764
        },
        {
            "buffer" : 0,
            "byteLength" : 384,
            "byteOffset" : 7836
        },
        {
            "buffer" : 0,
            "byteLength" : 648,
            "byteOffset" : 8220
        },
        {
            "buffer" : 0,
            "byteLength" : 648,
            "byteOffset" : 8868
        },
        {
            "buffer" : 0,
            "byteLength" : 432,
            "byteOffset" : 9516
        },
        {
            "buffer" : 0,
            "byteLength" : 168,
            "byteOffset" : 9948
        }
    ],
    "samplers" : [
        {
            "magFilter" : 9728,
            "minFilter" : 9984
        }
    ],
    "buffers" : [
        {
            "byteLength" : 10116,
            "uri" : "data:application/octet-stream;base64,"
        }
    ]
}
