{
    "asset" : {
        "generator" : "Khronos glTF Blender I/O v1.6.16",
        "version" : "2.0"
    },
    "scene" : 0,
    "scenes" : [
        {
            "name" : "Scene",
            "nodes" : [
                0
            ]
        }
    ],
    "nodes" : [
        {
            "mesh" : 0,
            "name" : "pillar_1-col",
            "translation" : [
                -6.266786575317383,
                0,
                43.8447265625
            ]
        }
    ],
    "materials" : [
        {
            "alphaCutoff" : 0.5,
            "alphaMode" : "MASK",
            "name" : "wall_base",
            "pbrMetallicRoughness" : {
                "baseColorTexture" : {
                    "index" : 0
                },
                "metallicFactor" : 0
            }
        },
        {
            "alphaCutoff" : 0.5,
            "alphaMode" : "MASK",
            "name" : "sandstone",
            "pbrMetallicRoughness" : {
                "baseColorTexture" : {
                    "index" : 1
                },
                "metallicFactor" : 0
            }
        },
        {
            "name" : "wall_wall",
            "pbrMetallicRoughness" : {
                "baseColorTexture" : {
                    "index" : 2
                },
                "metallicFactor" : 0
            }
        },
        {
            "alphaCutoff" : 0.5,
            "alphaMode" : "MASK",
            "name" : "wall_middle.001",
            "pbrMetallicRoughness" : {
                "baseColorTexture" : {
                    "index" : 3
                },
                "metallicFactor" : 0
            }
        },
        {
            "alphaCutoff" : 0.5,
            "alphaMode" : "MASK",
            "name" : "wall_top.001",
            "pbrMetallicRoughness" : {
                "baseColorTexture" : {
                    "index" : 4
                },
                "metallicFactor" : 0
            }
        },
        {
            "alphaCutoff" : 0.5,
            "alphaMode" : "MASK",
            "name" : "sandstone.003",
            "pbrMetallicRoughness" : {
                "baseColorTexture" : {
                    "index" : 5
                },
                "metallicFactor" : 0
            }
        }
    ],
    "meshes" : [
        {
            "name" : "Cube.003",
            "primitives" : [
                {
                    "attributes" : {
                        "POSITION" : 0,
                        "NORMAL" : 1,
                        "TEXCOORD_0" : 2
                    },
                    "indices" : 3,
                    "material" : 0
                },
                {
                    "attributes" : {
                        "POSITION" : 4,
                        "NORMAL" : 5,
                        "TEXCOORD_0" : 6
                    },
                    "indices" : 7,
                    "material" : 1
                },
                {
                    "attributes" : {
                        "POSITION" : 8,
                        "NORMAL" : 9,
                        "TEXCOORD_0" : 10
                    },
                    "indices" : 11,
                    "material" : 2
                },
                {
                    "attributes" : {
                        "POSITION" : 12,
                        "NORMAL" : 13,
                        "TEXCOORD_0" : 14
                    },
                    "indices" : 15,
                    "material" : 3
                },
                {
                    "attributes" : {
                        "POSITION" : 16,
                        "NORMAL" : 17,
                        "TEXCOORD_0" : 18
                    },
                    "indices" : 19,
                    "material" : 4
                },
                {
                    "attributes" : {
                        "POSITION" : 20,
                        "NORMAL" : 21,
                        "TEXCOORD_0" : 22
                    },
                    "indices" : 23,
                    "material" : 5
                }
            ]
        }
    ],
    "textures" : [
        {
            "sampler" : 0,
            "source" : 0
        },
        {
            "sampler" : 0,
            "source" : 1
        },
        {
            "sampler" : 0,
            "source" : 2
        },
        {
            "sampler" : 0,
            "source" : 3
        },
        {
            "sampler" : 0,
            "source" : 4
        },
        {
            "sampler" : 0,
            "source" : 1
        }
    ],
    "images" : [
        {
            "bufferView" : 4,
            "mimeType" : "image/png",
            "name" : "wall_base"
        },
        {
            "bufferView" : 9,
            "mimeType" : "image/png",
            "name" : "sandstone"
        },
        {
            "bufferView" : 14,
            "mimeType" : "image/png",
            "name" : "wall_wall"
        },
        {
            "bufferView" : 19,
            "mimeType" : "image/png",
            "name" : "wall_middle"
        },
        {
            "bufferView" : 24,
            "mimeType" : "image/png",
            "name" : "wall_top"
        }
    ],
    "accessors" : [
        {
            "bufferView" : 0,
            "componentType" : 5126,
            "count" : 24,
            "max" : [
                15.728841781616211,
                4,
                1.1568562984466553
            ],
            "min" : [
                6.97727632522583,
                0,
                -8.948579788208008
            ],
            "type" : "VEC3"
        },
        {
            "bufferView" : 1,
            "componentType" : 5126,
            "count" : 24,
            "type" : "VEC3"
        },
        {
            "bufferView" : 2,
            "componentType" : 5126,
            "count" : 24,
            "type" : "VEC2"
        },
        {
            "bufferView" : 3,
            "componentType" : 5123,
            "count" : 36,
            "type" : "SCALAR"
        },
        {
            "bufferView" : 5,
            "componentType" : 5126,
            "count" : 6,
            "max" : [
                15.353053092956543,
                0,
                0.7229399681091309
            ],
            "min" : [
                7.353053092956543,
                0,
                -8.514663696289062
            ],
            "type" : "VEC3"
        },
        {
            "bufferView" : 6,
            "componentType" : 5126,
            "count" : 6,
            "type" : "VEC3"
        },
        {
            "bufferView" : 7,
            "componentType" : 5126,
            "count" : 6,
            "type" : "VEC2"
        },
        {
            "bufferView" : 8,
            "componentType" : 5123,
            "count" : 12,
            "type" : "SCALAR"
        },
        {
            "bufferView" : 10,
            "componentType" : 5126,
            "count" : 192,
            "max" : [
                15.728841781616211,
                32.0000114440918,
                1.1568562984466553
            ],
            "min" : [
                6.977161407470703,
                4,
                -8.948579788208008
            ],
            "type" : "VEC3"
        },
        {
            "bufferView" : 11,
            "componentType" : 5126,
            "count" : 192,
            "type" : "VEC3"
        },
        {
            "bufferView" : 12,
            "componentType" : 5126,
            "count" : 192,
            "type" : "VEC2"
        },
        {
            "bufferView" : 13,
            "componentType" : 5123,
            "count" : 288,
            "type" : "SCALAR"
        },
        {
            "bufferView" : 15,
            "componentType" : 5126,
            "count" : 24,
            "max" : [
                15.353008270263672,
                20.000015258789062,
                0.7229399681091309
            ],
            "min" : [
                7.352993011474609,
                15.999998092651367,
                -8.514663696289062
            ],
            "type" : "VEC3"
        },
        {
            "bufferView" : 16,
            "componentType" : 5126,
            "count" : 24,
            "type" : "VEC3"
        },
        {
            "bufferView" : 17,
            "componentType" : 5126,
            "count" : 24,
            "type" : "VEC2"
        },
        {
            "bufferView" : 18,
            "componentType" : 5123,
            "count" : 36,
            "type" : "SCALAR"
        },
        {
            "bufferView" : 20,
            "componentType" : 5126,
            "count" : 24,
            "max" : [
                15.728726387023926,
                36.0000114440918,
                1.1568562984466553
            ],
            "min" : [
                6.977144718170166,
                31.999996185302734,
                -8.948579788208008
            ],
            "type" : "VEC3"
        },
        {
            "bufferView" : 21,
            "componentType" : 5126,
            "count" : 24,
            "type" : "VEC3"
        },
        {
            "bufferView" : 22,
            "componentType" : 5126,
            "count" : 24,
            "type" : "VEC2"
        },
        {
            "bufferView" : 23,
            "componentType" : 5123,
            "count" : 36,
            "type" : "SCALAR"
        },
        {
            "bufferView" : 25,
            "componentType" : 5126,
            "count" : 54,
            "max" : [
                15.728841781616211,
                36.0000114440918,
                1.1568562984466553
            ],
            "min" : [
                6.977144718170166,
                0,
                -8.948579788208008
            ],
            "type" : "VEC3"
        },
        {
            "bufferView" : 26,
            "componentType" : 5126,
            "count" : 54,
            "type" : "VEC3"
        },
        {
            "bufferView" : 27,
            "componentType" : 5126,
            "count" : 54,
            "type" : "VEC2"
        },
        {
            "bufferView" : 28,
            "componentType" : 5123,
            "count" : 84,
            "type" : "SCALAR"
        }
    ],
    "bufferViews" : [
        {
            "buffer" : 0,
            "byteLength" : 288,
            "byteOffset" : 0
        },
        {
            "buffer" : 0,
            "byteLength" : 288,
            "byteOffset" : 288
        },
        {
            "buffer" : 0,
            "byteLength" : 192,
            "byteOffset" : 576
        },
        {
            "buffer" : 0,
            "byteLength" : 72,
            "byteOffset" : 768
        },
        {
            "buffer" : 0,
            "byteLength" : 370,
            "byteOffset" : 840
        },
        {
            "buffer" : 0,
            "byteLength" : 72,
            "byteOffset" : 1212
        },
        {
            "buffer" : 0,
            "byteLength" : 72,
            "byteOffset" : 1284
        },
        {
            "buffer" : 0,
            "byteLength" : 48,
            "byteOffset" : 1356
        },
        {
            "buffer" : 0,
            "byteLength" : 24,
            "byteOffset" : 1404
        },
        {
            "buffer" : 0,
            "byteLength" : 544,
            "byteOffset" : 1428
        },
        {
            "buffer" : 0,
            "byteLength" : 2304,
            "byteOffset" : 1972
        },
        {
            "buffer" : 0,
            "byteLength" : 2304,
            "byteOffset" : 4276
        },
        {
            "buffer" : 0,
            "byteLength" : 1536,
            "byteOffset" : 6580
        },
        {
            "buffer" : 0,
            "byteLength" : 576,
            "byteOffset" : 8116
        },
        {
            "buffer" : 0,
            "byteLength" : 403,
            "byteOffset" : 8692
        },
        {
            "buffer" : 0,
            "byteLength" : 288,
            "byteOffset" : 9096
        },
        {
            "buffer" : 0,
            "byteLength" : 288,
            "byteOffset" : 9384
        },
        {
            "buffer" : 0,
            "byteLength" : 192,
            "byteOffset" : 9672
        },
        {
            "buffer" : 0,
            "byteLength" : 72,
            "byteOffset" : 9864
        },
        {
            "buffer" : 0,
            "byteLength" : 417,
            "byteOffset" : 9936
        },
        {
            "buffer" : 0,
            "byteLength" : 288,
            "byteOffset" : 10356
        },
        {
            "buffer" : 0,
            "byteLength" : 288,
            "byteOffset" : 10644
        },
        {
            "buffer" : 0,
            "byteLength" : 192,
            "byteOffset" : 10932
        },
        {
            "buffer" : 0,
            "byteLength" : 72,
            "byteOffset" : 11124
        },
        {
            "buffer" : 0,
            "byteLength" : 384,
            "byteOffset" : 11196
        },
        {
            "buffer" : 0,
            "byteLength" : 648,
            "byteOffset" : 11580
        },
        {
            "buffer" : 0,
            "byteLength" : 648,
            "byteOffset" : 12228
        },
        {
            "buffer" : 0,
            "byteLength" : 432,
            "byteOffset" : 12876
        },
        {
            "buffer" : 0,
            "byteLength" : 168,
            "byteOffset" : 13308
        }
    ],
    "samplers" : [
        {
            "magFilter" : 9728,
            "minFilter" : 9984
        }
    ],
    "buffers" : [
        {
            "byteLength" : 13476,
            "uri" : "data:application/octet-stream;base64,"
        }
    ]
}
