{
    "asset" : {
        "generator" : "Khronos glTF Blender I/O v1.6.16",
        "version" : "2.0"
    },
    "scene" : 0,
    "scenes" : [
        {
            "name" : "Scene",
            "nodes" : [
                0
            ]
        }
    ],
    "nodes" : [
        {
            "mesh" : 0,
            "name" : "plateau_simple",
            "translation" : [
                208.85020446777344,
                183.1077117919922,
                13.017763137817383
            ]
        }
    ],
    "materials" : [
        {
            "alphaCutoff" : 0.5,
            "alphaMode" : "MASK",
            "name" : "grass-edge",
            "pbrMetallicRoughness" : {
                "baseColorTexture" : {
                    "index" : 0
                },
                "metallicFactor" : 0,
                "roughnessFactor" : 0.6000000238418579
            }
        },
        {
            "alphaCutoff" : 0.5,
            "alphaMode" : "MASK",
            "name" : "grass-top",
            "pbrMetallicRoughness" : {
                "baseColorTexture" : {
                    "index" : 1
                },
                "metallicFactor" : 0,
                "roughnessFactor" : 0.6000000238418579
            }
        },
        {
            "alphaCutoff" : 0.5,
            "alphaMode" : "MASK",
            "doubleSided" : true,
            "name" : "grass-wall",
            "pbrMetallicRoughness" : {
                "baseColorTexture" : {
                    "index" : 2
                },
                "metallicFactor" : 0,
                "roughnessFactor" : 0.6000000238418579
            }
        }
    ],
    "meshes" : [
        {
            "name" : "Cylinder.001",
            "primitives" : [
                {
                    "attributes" : {
                        "POSITION" : 0,
                        "NORMAL" : 1,
                        "TEXCOORD_0" : 2
                    },
                    "indices" : 3,
                    "material" : 0
                },
                {
                    "attributes" : {
                        "POSITION" : 4,
                        "NORMAL" : 5,
                        "TEXCOORD_0" : 6
                    },
                    "indices" : 7,
                    "material" : 1
                },
                {
                    "attributes" : {
                        "POSITION" : 8,
                        "NORMAL" : 9,
                        "TEXCOORD_0" : 10
                    },
                    "indices" : 11,
                    "material" : 2
                },
                {
                    "attributes" : {
                        "POSITION" : 12,
                        "NORMAL" : 13,
                        "TEXCOORD_0" : 14
                    },
                    "indices" : 15,
                    "material" : 1
                }
            ]
        }
    ],
    "textures" : [
        {
            "sampler" : 0,
            "source" : 0
        },
        {
            "sampler" : 0,
            "source" : 1
        },
        {
            "sampler" : 0,
            "source" : 2
        }
    ],
    "images" : [
        {
            "bufferView" : 4,
            "mimeType" : "image/png",
            "name" : "grass-edge"
        },
        {
            "bufferView" : 9,
            "mimeType" : "image/png",
            "name" : "grass-top"
        },
        {
            "bufferView" : 14,
            "mimeType" : "image/png",
            "name" : "grass-wall"
        }
    ],
    "accessors" : [
        {
            "bufferView" : 0,
            "componentType" : 5126,
            "count" : 657,
            "max" : [
                84.28509521484375,
                21.002927780151367,
                92.23578643798828
            ],
            "min" : [
                -81.16851043701172,
                11.948680877685547,
                -93.0753402709961
            ],
            "type" : "VEC3"
        },
        {
            "bufferView" : 1,
            "componentType" : 5126,
            "count" : 657,
            "type" : "VEC3"
        },
        {
            "bufferView" : 2,
            "componentType" : 5126,
            "count" : 657,
            "type" : "VEC2"
        },
        {
            "bufferView" : 3,
            "componentType" : 5123,
            "count" : 1047,
            "type" : "SCALAR"
        },
        {
            "bufferView" : 5,
            "componentType" : 5126,
            "count" : 579,
            "max" : [
                82.34361267089844,
                25.301145553588867,
                90.73228454589844
            ],
            "min" : [
                -79.15383911132812,
                19.101137161254883,
                -91.7598648071289
            ],
            "type" : "VEC3"
        },
        {
            "bufferView" : 6,
            "componentType" : 5126,
            "count" : 579,
            "type" : "VEC3"
        },
        {
            "bufferView" : 7,
            "componentType" : 5126,
            "count" : 579,
            "type" : "VEC2"
        },
        {
            "bufferView" : 8,
            "componentType" : 5123,
            "count" : 837,
            "type" : "SCALAR"
        },
        {
            "bufferView" : 10,
            "componentType" : 5126,
            "count" : 138,
            "max" : [
                84.28509521484375,
                11.948680877685547,
                92.23578643798828
            ],
            "min" : [
                -81.16851043701172,
                -296.1129455566406,
                -93.0753402709961
            ],
            "type" : "VEC3"
        },
        {
            "bufferView" : 11,
            "componentType" : 5126,
            "count" : 138,
            "type" : "VEC3"
        },
        {
            "bufferView" : 12,
            "componentType" : 5126,
            "count" : 138,
            "type" : "VEC2"
        },
        {
            "bufferView" : 13,
            "componentType" : 5123,
            "count" : 252,
            "type" : "SCALAR"
        },
        {
            "bufferView" : 15,
            "componentType" : 5126,
            "count" : 558,
            "max" : [
                74.19100952148438,
                25.301145553588867,
                71.22373962402344
            ],
            "min" : [
                -79.15383911132812,
                19.101137161254883,
                -84.00395965576172
            ],
            "type" : "VEC3"
        },
        {
            "bufferView" : 16,
            "componentType" : 5126,
            "count" : 558,
            "type" : "VEC3"
        },
        {
            "bufferView" : 17,
            "componentType" : 5126,
            "count" : 558,
            "type" : "VEC2"
        },
        {
            "bufferView" : 18,
            "componentType" : 5123,
            "count" : 840,
            "type" : "SCALAR"
        }
    ],
    "bufferViews" : [
        {
            "buffer" : 0,
            "byteLength" : 7884,
            "byteOffset" : 0
        },
        {
            "buffer" : 0,
            "byteLength" : 7884,
            "byteOffset" : 7884
        },
        {
            "buffer" : 0,
            "byteLength" : 5256,
            "byteOffset" : 15768
        },
        {
            "buffer" : 0,
            "byteLength" : 2094,
            "byteOffset" : 21024
        },
        {
            "buffer" : 0,
            "byteLength" : 633,
            "byteOffset" : 23120
        },
        {
            "buffer" : 0,
            "byteLength" : 6948,
            "byteOffset" : 23756
        },
        {
            "buffer" : 0,
            "byteLength" : 6948,
            "byteOffset" : 30704
        },
        {
            "buffer" : 0,
            "byteLength" : 4632,
            "byteOffset" : 37652
        },
        {
            "buffer" : 0,
            "byteLength" : 1674,
            "byteOffset" : 42284
        },
        {
            "buffer" : 0,
            "byteLength" : 654,
            "byteOffset" : 43960
        },
        {
            "buffer" : 0,
            "byteLength" : 1656,
            "byteOffset" : 44616
        },
        {
            "buffer" : 0,
            "byteLength" : 1656,
            "byteOffset" : 46272
        },
        {
            "buffer" : 0,
            "byteLength" : 1104,
            "byteOffset" : 47928
        },
        {
            "buffer" : 0,
            "byteLength" : 504,
            "byteOffset" : 49032
        },
        {
            "buffer" : 0,
            "byteLength" : 417,
            "byteOffset" : 49536
        },
        {
            "buffer" : 0,
            "byteLength" : 6696,
            "byteOffset" : 49956
        },
        {
            "buffer" : 0,
            "byteLength" : 6696,
            "byteOffset" : 56652
        },
        {
            "buffer" : 0,
            "byteLength" : 4464,
            "byteOffset" : 63348
        },
        {
            "buffer" : 0,
            "byteLength" : 1680,
            "byteOffset" : 67812
        }
    ],
    "samplers" : [
        {
            "magFilter" : 9728,
            "minFilter" : 9984
        }
    ],
    "buffers" : [
        {
            "byteLength" : 69492,
            "uri" : "data:application/octet-stream;base64,"
        }
    ]
}
