{
    "asset" : {
        "generator" : "Khronos glTF Blender I/O v1.6.16",
        "version" : "2.0"
    },
    "scene" : 0,
    "scenes" : [
        {
            "name" : "Scene",
            "nodes" : [
                0
            ]
        }
    ],
    "nodes" : [
        {
            "mesh" : 0,
            "name" : "rug",
            "translation" : [
                -90.01730346679688,
                -73.43032836914062,
                28.84162139892578
            ]
        }
    ],
    "materials" : [
        {
            "alphaCutoff" : 0.5,
            "alphaMode" : "MASK",
            "doubleSided" : true,
            "name" : "carpet_right.001",
            "pbrMetallicRoughness" : {
                "baseColorTexture" : {
                    "index" : 0
                },
                "metallicFactor" : 0
            }
        },
        {
            "alphaCutoff" : 0.5,
            "alphaMode" : "MASK",
            "doubleSided" : true,
            "name" : "carpet_top.001",
            "pbrMetallicRoughness" : {
                "baseColorTexture" : {
                    "index" : 1
                },
                "metallicFactor" : 0
            }
        },
        {
            "alphaCutoff" : 0.5,
            "alphaMode" : "MASK",
            "doubleSided" : true,
            "name" : "carpet_bottomright.001",
            "pbrMetallicRoughness" : {
                "baseColorTexture" : {
                    "index" : 2
                },
                "metallicFactor" : 0,
                "roughnessFactor" : 0.9950494766235352
            }
        },
        {
            "alphaCutoff" : 0.5,
            "alphaMode" : "MASK",
            "doubleSided" : true,
            "name" : "carpet_bottomleft.001",
            "pbrMetallicRoughness" : {
                "baseColorTexture" : {
                    "index" : 3
                },
                "metallicFactor" : 0,
                "roughnessFactor" : 0.9950494766235352
            }
        },
        {
            "alphaCutoff" : 0.5,
            "alphaMode" : "MASK",
            "doubleSided" : true,
            "name" : "carpet_bottom.001",
            "pbrMetallicRoughness" : {
                "baseColorTexture" : {
                    "index" : 4
                },
                "metallicFactor" : 0,
                "roughnessFactor" : 0.9950494766235352
            }
        },
        {
            "alphaCutoff" : 0.5,
            "alphaMode" : "MASK",
            "doubleSided" : true,
            "name" : "carpet_center.001",
            "pbrMetallicRoughness" : {
                "baseColorTexture" : {
                    "index" : 5
                },
                "metallicFactor" : 0,
                "roughnessFactor" : 0.9950494766235352
            }
        },
        {
            "alphaCutoff" : 0.5,
            "alphaMode" : "MASK",
            "doubleSided" : true,
            "name" : "carpet_left.001",
            "pbrMetallicRoughness" : {
                "baseColorTexture" : {
                    "index" : 6
                },
                "metallicFactor" : 0
            }
        },
        {
            "alphaCutoff" : 0.5,
            "alphaMode" : "MASK",
            "doubleSided" : true,
            "name" : "carpet_topleft.001",
            "pbrMetallicRoughness" : {
                "baseColorTexture" : {
                    "index" : 7
                },
                "metallicFactor" : 0
            }
        },
        {
            "alphaCutoff" : 0.5,
            "alphaMode" : "MASK",
            "doubleSided" : true,
            "name" : "carpet_topright",
            "pbrMetallicRoughness" : {
                "baseColorTexture" : {
                    "index" : 8
                },
                "metallicFactor" : 0,
                "roughnessFactor" : 0.9950494766235352
            }
        }
    ],
    "meshes" : [
        {
            "name" : "Cube.010",
            "primitives" : [
                {
                    "attributes" : {
                        "POSITION" : 0,
                        "NORMAL" : 1,
                        "TEXCOORD_0" : 2
                    },
                    "indices" : 3,
                    "material" : 0
                },
                {
                    "attributes" : {
                        "POSITION" : 4,
                        "NORMAL" : 5,
                        "TEXCOORD_0" : 6
                    },
                    "indices" : 7,
                    "material" : 1
                },
                {
                    "attributes" : {
                        "POSITION" : 8,
                        "NORMAL" : 9,
                        "TEXCOORD_0" : 10
                    },
                    "indices" : 11,
                    "material" : 2
                },
                {
                    "attributes" : {
                        "POSITION" : 12,
                        "NORMAL" : 13,
                        "TEXCOORD_0" : 14
                    },
                    "indices" : 11,
                    "material" : 3
                },
                {
                    "attributes" : {
                        "POSITION" : 15,
                        "NORMAL" : 16,
                        "TEXCOORD_0" : 17
                    },
                    "indices" : 18,
                    "material" : 4
                },
                {
                    "attributes" : {
                        "POSITION" : 19,
                        "NORMAL" : 20,
                        "TEXCOORD_0" : 21
                    },
                    "indices" : 22,
                    "material" : 5
                },
                {
                    "attributes" : {
                        "POSITION" : 23,
                        "NORMAL" : 24,
                        "TEXCOORD_0" : 25
                    },
                    "indices" : 26,
                    "material" : 6
                },
                {
                    "attributes" : {
                        "POSITION" : 27,
                        "NORMAL" : 28,
                        "TEXCOORD_0" : 29
                    },
                    "indices" : 30,
                    "material" : 7
                },
                {
                    "attributes" : {
                        "POSITION" : 31,
                        "NORMAL" : 32,
                        "TEXCOORD_0" : 33
                    },
                    "indices" : 34,
                    "material" : 8
                }
            ]
        }
    ],
    "textures" : [
        {
            "sampler" : 0,
            "source" : 0
        },
        {
            "sampler" : 0,
            "source" : 1
        },
        {
            "sampler" : 0,
            "source" : 2
        },
        {
            "sampler" : 0,
            "source" : 3
        },
        {
            "sampler" : 0,
            "source" : 4
        },
        {
            "sampler" : 0,
            "source" : 5
        },
        {
            "sampler" : 0,
            "source" : 6
        },
        {
            "sampler" : 0,
            "source" : 7
        },
        {
            "sampler" : 0,
            "source" : 8
        }
    ],
    "images" : [
        {
            "bufferView" : 4,
            "mimeType" : "image/png",
            "name" : "carpet_right"
        },
        {
            "bufferView" : 9,
            "mimeType" : "image/png",
            "name" : "carpet_top"
        },
        {
            "bufferView" : 14,
            "mimeType" : "image/png",
            "name" : "carpet_bottomright"
        },
        {
            "bufferView" : 18,
            "mimeType" : "image/png",
            "name" : "carpet_bottomleft"
        },
        {
            "bufferView" : 23,
            "mimeType" : "image/png",
            "name" : "carpet_bottom"
        },
        {
            "bufferView" : 28,
            "mimeType" : "image/png",
            "name" : "carpet_center"
        },
        {
            "bufferView" : 33,
            "mimeType" : "image/png",
            "name" : "carpet_left"
        },
        {
            "bufferView" : 38,
            "mimeType" : "image/png",
            "name" : "carpet_topleft"
        },
        {
            "bufferView" : 43,
            "mimeType" : "image/png",
            "name" : "carpet_topright"
        }
    ],
    "accessors" : [
        {
            "bufferView" : 0,
            "componentType" : 5126,
            "count" : 16,
            "max" : [
                8.322479248046875,
                -7.62939453125e-06,
                7.0323805809021
            ],
            "min" : [
                -7.677558898925781,
                -7.62939453125e-06,
                3.0322110652923584
            ],
            "type" : "VEC3"
        },
        {
            "bufferView" : 1,
            "componentType" : 5126,
            "count" : 16,
            "type" : "VEC3"
        },
        {
            "bufferView" : 2,
            "componentType" : 5126,
            "count" : 16,
            "type" : "VEC2"
        },
        {
            "bufferView" : 3,
            "componentType" : 5123,
            "count" : 24,
            "type" : "SCALAR"
        },
        {
            "bufferView" : 5,
            "componentType" : 5126,
            "count" : 8,
            "max" : [
                12.322608947753906,
                -7.62939453125e-06,
                3.032254934310913
            ],
            "min" : [
                8.322608947753906,
                -7.62939453125e-06,
                -4.967744827270508
            ],
            "type" : "VEC3"
        },
        {
            "bufferView" : 6,
            "componentType" : 5126,
            "count" : 8,
            "type" : "VEC3"
        },
        {
            "bufferView" : 7,
            "componentType" : 5126,
            "count" : 8,
            "type" : "VEC2"
        },
        {
            "bufferView" : 8,
            "componentType" : 5123,
            "count" : 12,
            "type" : "SCALAR"
        },
        {
            "bufferView" : 10,
            "componentType" : 5126,
            "count" : 4,
            "max" : [
                -7.677276611328125,
                -7.62939453125e-06,
                7.032311916351318
            ],
            "min" : [
                -11.67730712890625,
                -7.62939453125e-06,
                3.032282590866089
            ],
            "type" : "VEC3"
        },
        {
            "bufferView" : 11,
            "componentType" : 5126,
            "count" : 4,
            "type" : "VEC3"
        },
        {
            "bufferView" : 12,
            "componentType" : 5126,
            "count" : 4,
            "type" : "VEC2"
        },
        {
            "bufferView" : 13,
            "componentType" : 5123,
            "count" : 6,
            "type" : "SCALAR"
        },
        {
            "bufferView" : 15,
            "componentType" : 5126,
            "count" : 4,
            "max" : [
                -7.677391052246094,
                -7.62939453125e-06,
                -4.967772483825684
            ],
            "min" : [
                -11.677421569824219,
                -7.62939453125e-06,
                -8.967801094055176
            ],
            "type" : "VEC3"
        },
        {
            "bufferView" : 16,
            "componentType" : 5126,
            "count" : 4,
            "type" : "VEC3"
        },
        {
            "bufferView" : 17,
            "componentType" : 5126,
            "count" : 4,
            "type" : "VEC2"
        },
        {
            "bufferView" : 19,
            "componentType" : 5126,
            "count" : 8,
            "max" : [
                -7.677421569824219,
                -7.62939453125e-06,
                3.032226324081421
            ],
            "min" : [
                -11.677474975585938,
                -7.62939453125e-06,
                -4.967801094055176
            ],
            "type" : "VEC3"
        },
        {
            "bufferView" : 20,
            "componentType" : 5126,
            "count" : 8,
            "type" : "VEC3"
        },
        {
            "bufferView" : 21,
            "componentType" : 5126,
            "count" : 8,
            "type" : "VEC2"
        },
        {
            "bufferView" : 22,
            "componentType" : 5123,
            "count" : 12,
            "type" : "SCALAR"
        },
        {
            "bufferView" : 24,
            "componentType" : 5126,
            "count" : 32,
            "max" : [
                8.322608947753906,
                -7.62939453125e-06,
                3.032254934310913
            ],
            "min" : [
                -7.677391052246094,
                -7.62939453125e-06,
                -4.967744827270508
            ],
            "type" : "VEC3"
        },
        {
            "bufferView" : 25,
            "componentType" : 5126,
            "count" : 32,
            "type" : "VEC3"
        },
        {
            "bufferView" : 26,
            "componentType" : 5126,
            "count" : 32,
            "type" : "VEC2"
        },
        {
            "bufferView" : 27,
            "componentType" : 5123,
            "count" : 48,
            "type" : "SCALAR"
        },
        {
            "bufferView" : 29,
            "componentType" : 5126,
            "count" : 16,
            "max" : [
                8.322608947753906,
                -7.62939453125e-06,
                -4.967744827270508
            ],
            "min" : [
                -7.677391052246094,
                -7.62939453125e-06,
                -8.967743873596191
            ],
            "type" : "VEC3"
        },
        {
            "bufferView" : 30,
            "componentType" : 5126,
            "count" : 16,
            "type" : "VEC3"
        },
        {
            "bufferView" : 31,
            "componentType" : 5126,
            "count" : 16,
            "type" : "VEC2"
        },
        {
            "bufferView" : 32,
            "componentType" : 5123,
            "count" : 24,
            "type" : "SCALAR"
        },
        {
            "bufferView" : 34,
            "componentType" : 5126,
            "count" : 4,
            "max" : [
                12.322608947753906,
                -7.62939453125e-06,
                -4.967744827270508
            ],
            "min" : [
                8.322608947753906,
                -7.62939453125e-06,
                -8.967743873596191
            ],
            "type" : "VEC3"
        },
        {
            "bufferView" : 35,
            "componentType" : 5126,
            "count" : 4,
            "type" : "VEC3"
        },
        {
            "bufferView" : 36,
            "componentType" : 5126,
            "count" : 4,
            "type" : "VEC2"
        },
        {
            "bufferView" : 37,
            "componentType" : 5123,
            "count" : 6,
            "type" : "SCALAR"
        },
        {
            "bufferView" : 39,
            "componentType" : 5126,
            "count" : 4,
            "max" : [
                12.322608947753906,
                -7.62939453125e-06,
                7.032254695892334
            ],
            "min" : [
                8.322608947753906,
                -7.62939453125e-06,
                3.032254934310913
            ],
            "type" : "VEC3"
        },
        {
            "bufferView" : 40,
            "componentType" : 5126,
            "count" : 4,
            "type" : "VEC3"
        },
        {
            "bufferView" : 41,
            "componentType" : 5126,
            "count" : 4,
            "type" : "VEC2"
        },
        {
            "bufferView" : 42,
            "componentType" : 5123,
            "count" : 6,
            "type" : "SCALAR"
        }
    ],
    "bufferViews" : [
        {
            "buffer" : 0,
            "byteLength" : 192,
            "byteOffset" : 0
        },
        {
            "buffer" : 0,
            "byteLength" : 192,
            "byteOffset" : 192
        },
        {
            "buffer" : 0,
            "byteLength" : 128,
            "byteOffset" : 384
        },
        {
            "buffer" : 0,
            "byteLength" : 48,
            "byteOffset" : 512
        },
        {
            "buffer" : 0,
            "byteLength" : 531,
            "byteOffset" : 560
        },
        {
            "buffer" : 0,
            "byteLength" : 96,
            "byteOffset" : 1092
        },
        {
            "buffer" : 0,
            "byteLength" : 96,
            "byteOffset" : 1188
        },
        {
            "buffer" : 0,
            "byteLength" : 64,
            "byteOffset" : 1284
        },
        {
            "buffer" : 0,
            "byteLength" : 24,
            "byteOffset" : 1348
        },
        {
            "buffer" : 0,
            "byteLength" : 452,
            "byteOffset" : 1372
        },
        {
            "buffer" : 0,
            "byteLength" : 48,
            "byteOffset" : 1824
        },
        {
            "buffer" : 0,
            "byteLength" : 48,
            "byteOffset" : 1872
        },
        {
            "buffer" : 0,
            "byteLength" : 32,
            "byteOffset" : 1920
        },
        {
            "buffer" : 0,
            "byteLength" : 12,
            "byteOffset" : 1952
        },
        {
            "buffer" : 0,
            "byteLength" : 511,
            "byteOffset" : 1964
        },
        {
            "buffer" : 0,
            "byteLength" : 48,
            "byteOffset" : 2476
        },
        {
            "buffer" : 0,
            "byteLength" : 48,
            "byteOffset" : 2524
        },
        {
            "buffer" : 0,
            "byteLength" : 32,
            "byteOffset" : 2572
        },
        {
            "buffer" : 0,
            "byteLength" : 518,
            "byteOffset" : 2604
        },
        {
            "buffer" : 0,
            "byteLength" : 96,
            "byteOffset" : 3124
        },
        {
            "buffer" : 0,
            "byteLength" : 96,
            "byteOffset" : 3220
        },
        {
            "buffer" : 0,
            "byteLength" : 64,
            "byteOffset" : 3316
        },
        {
            "buffer" : 0,
            "byteLength" : 24,
            "byteOffset" : 3380
        },
        {
            "buffer" : 0,
            "byteLength" : 455,
            "byteOffset" : 3404
        },
        {
            "buffer" : 0,
            "byteLength" : 384,
            "byteOffset" : 3860
        },
        {
            "buffer" : 0,
            "byteLength" : 384,
            "byteOffset" : 4244
        },
        {
            "buffer" : 0,
            "byteLength" : 256,
            "byteOffset" : 4628
        },
        {
            "buffer" : 0,
            "byteLength" : 96,
            "byteOffset" : 4884
        },
        {
            "buffer" : 0,
            "byteLength" : 438,
            "byteOffset" : 4980
        },
        {
            "buffer" : 0,
            "byteLength" : 192,
            "byteOffset" : 5420
        },
        {
            "buffer" : 0,
            "byteLength" : 192,
            "byteOffset" : 5612
        },
        {
            "buffer" : 0,
            "byteLength" : 128,
            "byteOffset" : 5804
        },
        {
            "buffer" : 0,
            "byteLength" : 48,
            "byteOffset" : 5932
        },
        {
            "buffer" : 0,
            "byteLength" : 543,
            "byteOffset" : 5980
        },
        {
            "buffer" : 0,
            "byteLength" : 48,
            "byteOffset" : 6524
        },
        {
            "buffer" : 0,
            "byteLength" : 48,
            "byteOffset" : 6572
        },
        {
            "buffer" : 0,
            "byteLength" : 32,
            "byteOffset" : 6620
        },
        {
            "buffer" : 0,
            "byteLength" : 12,
            "byteOffset" : 6652
        },
        {
            "buffer" : 0,
            "byteLength" : 522,
            "byteOffset" : 6664
        },
        {
            "buffer" : 0,
            "byteLength" : 48,
            "byteOffset" : 7188
        },
        {
            "buffer" : 0,
            "byteLength" : 48,
            "byteOffset" : 7236
        },
        {
            "buffer" : 0,
            "byteLength" : 32,
            "byteOffset" : 7284
        },
        {
            "buffer" : 0,
            "byteLength" : 12,
            "byteOffset" : 7316
        },
        {
            "buffer" : 0,
            "byteLength" : 513,
            "byteOffset" : 7328
        }
    ],
    "samplers" : [
        {
            "magFilter" : 9728,
            "minFilter" : 9984
        }
    ],
    "buffers" : [
        {
            "byteLength" : 7844,
            "uri" : "data:application/octet-stream;base64,"
        }
    ]
}
