{
    "asset" : {
        "generator" : "Khronos glTF Blender I/O v1.6.16",
        "version" : "2.0"
    },
    "scene" : 0,
    "scenes" : [
        {
            "name" : "Scene",
            "nodes" : [
                0
            ]
        }
    ],
    "nodes" : [
        {
            "mesh" : 0,
            "name" : "Cube"
        }
    ],
    "materials" : [
        {
            "doubleSided" : true,
            "name" : "blue_clean",
            "pbrMetallicRoughness" : {
                "baseColorTexture" : {
                    "index" : 0
                },
                "metallicFactor" : 0,
                "roughnessFactor" : 0.5
            }
        },
        {
            "doubleSided" : true,
            "name" : "blue_dirty",
            "pbrMetallicRoughness" : {
                "baseColorTexture" : {
                    "index" : 1
                },
                "metallicFactor" : 0,
                "roughnessFactor" : 0.5
            }
        },
        {
            "doubleSided" : true,
            "name" : "crest",
            "pbrMetallicRoughness" : {
                "baseColorTexture" : {
                    "index" : 2
                },
                "metallicFactor" : 0,
                "roughnessFactor" : 0.5
            }
        },
        {
            "doubleSided" : true,
            "name" : "darkness",
            "pbrMetallicRoughness" : {
                "baseColorTexture" : {
                    "index" : 3
                },
                "metallicFactor" : 0,
                "roughnessFactor" : 0.5
            }
        },
        {
            "doubleSided" : true,
            "name" : "machine",
            "pbrMetallicRoughness" : {
                "baseColorTexture" : {
                    "index" : 4
                },
                "metallicFactor" : 0,
                "roughnessFactor" : 0.5
            }
        },
        {
            "doubleSided" : true,
            "name" : "red_clean",
            "pbrMetallicRoughness" : {
                "baseColorTexture" : {
                    "index" : 5
                },
                "metallicFactor" : 0,
                "roughnessFactor" : 0.5
            }
        },
        {
            "doubleSided" : true,
            "name" : "red_dirty",
            "pbrMetallicRoughness" : {
                "baseColorTexture" : {
                    "index" : 6
                },
                "metallicFactor" : 0,
                "roughnessFactor" : 0.5
            }
        },
        {
            "doubleSided" : true,
            "name" : "blue_super_clean",
            "pbrMetallicRoughness" : {
                "baseColorTexture" : {
                    "index" : 7
                },
                "metallicFactor" : 0,
                "roughnessFactor" : 0.5
            }
        }
    ],
    "meshes" : [
        {
            "name" : "Cube",
            "primitives" : [
                {
                    "attributes" : {
                        "POSITION" : 0,
                        "NORMAL" : 1,
                        "TEXCOORD_0" : 2
                    },
                    "indices" : 3,
                    "material" : 0
                },
                {
                    "attributes" : {
                        "POSITION" : 4,
                        "NORMAL" : 5,
                        "TEXCOORD_0" : 6
                    },
                    "indices" : 7,
                    "material" : 1
                },
                {
                    "attributes" : {
                        "POSITION" : 8,
                        "NORMAL" : 9,
                        "TEXCOORD_0" : 10
                    },
                    "indices" : 11,
                    "material" : 2
                },
                {
                    "attributes" : {
                        "POSITION" : 12,
                        "NORMAL" : 13,
                        "TEXCOORD_0" : 14
                    },
                    "indices" : 15,
                    "material" : 3
                },
                {
                    "attributes" : {
                        "POSITION" : 16,
                        "NORMAL" : 17,
                        "TEXCOORD_0" : 18
                    },
                    "indices" : 19,
                    "material" : 4
                },
                {
                    "attributes" : {
                        "POSITION" : 20,
                        "NORMAL" : 21,
                        "TEXCOORD_0" : 22
                    },
                    "indices" : 23,
                    "material" : 5
                },
                {
                    "attributes" : {
                        "POSITION" : 24,
                        "NORMAL" : 25,
                        "TEXCOORD_0" : 26
                    },
                    "indices" : 27,
                    "material" : 6
                },
                {
                    "attributes" : {
                        "POSITION" : 28,
                        "NORMAL" : 29,
                        "TEXCOORD_0" : 30
                    },
                    "indices" : 31,
                    "material" : 7
                }
            ]
        }
    ],
    "textures" : [
        {
            "sampler" : 0,
            "source" : 0
        },
        {
            "sampler" : 0,
            "source" : 1
        },
        {
            "sampler" : 0,
            "source" : 2
        },
        {
            "sampler" : 0,
            "source" : 3
        },
        {
            "sampler" : 0,
            "source" : 4
        },
        {
            "sampler" : 0,
            "source" : 5
        },
        {
            "sampler" : 0,
            "source" : 6
        },
        {
            "sampler" : 0,
            "source" : 7
        }
    ],
    "images" : [
        {
            "bufferView" : 4,
            "mimeType" : "image/png",
            "name" : "blue_clean"
        },
        {
            "bufferView" : 9,
            "mimeType" : "image/png",
            "name" : "blue_dirty"
        },
        {
            "bufferView" : 14,
            "mimeType" : "image/png",
            "name" : "crest"
        },
        {
            "bufferView" : 19,
            "mimeType" : "image/png",
            "name" : "darkness"
        },
        {
            "bufferView" : 24,
            "mimeType" : "image/png",
            "name" : "machine"
        },
        {
            "bufferView" : 29,
            "mimeType" : "image/png",
            "name" : "red_clean"
        },
        {
            "bufferView" : 34,
            "mimeType" : "image/png",
            "name" : "red_dirty"
        },
        {
            "bufferView" : 39,
            "mimeType" : "image/png",
            "name" : "blue_super_clean"
        }
    ],
    "accessors" : [
        {
            "bufferView" : 0,
            "componentType" : 5126,
            "count" : 122,
            "max" : [
                1.9886856079101562,
                3.310178756713867,
                1.988553524017334
            ],
            "min" : [
                -1.9883147478103638,
                -0.4761524498462677,
                -1.988446831703186
            ],
            "type" : "VEC3"
        },
        {
            "bufferView" : 1,
            "componentType" : 5126,
            "count" : 122,
            "type" : "VEC3"
        },
        {
            "bufferView" : 2,
            "componentType" : 5126,
            "count" : 122,
            "type" : "VEC2"
        },
        {
            "bufferView" : 3,
            "componentType" : 5123,
            "count" : 216,
            "type" : "SCALAR"
        },
        {
            "bufferView" : 5,
            "componentType" : 5126,
            "count" : 554,
            "max" : [
                1.5972001552581787,
                6.080192565917969,
                1.5972001552581787
            ],
            "min" : [
                -1.5972001552581787,
                -0.5785531997680664,
                -1.5972001552581787
            ],
            "type" : "VEC3"
        },
        {
            "bufferView" : 6,
            "componentType" : 5126,
            "count" : 554,
            "type" : "VEC3"
        },
        {
            "bufferView" : 7,
            "componentType" : 5126,
            "count" : 554,
            "type" : "VEC2"
        },
        {
            "bufferView" : 8,
            "componentType" : 5123,
            "count" : 936,
            "type" : "SCALAR"
        },
        {
            "bufferView" : 10,
            "componentType" : 5126,
            "count" : 687,
            "max" : [
                0.1840362846851349,
                6.124650001525879,
                0.6246558427810669
            ],
            "min" : [
                -1.1726584434509277,
                2.7330524921417236,
                -1.3478597402572632
            ],
            "type" : "VEC3"
        },
        {
            "bufferView" : 11,
            "componentType" : 5126,
            "count" : 687,
            "type" : "VEC3"
        },
        {
            "bufferView" : 12,
            "componentType" : 5126,
            "count" : 687,
            "type" : "VEC2"
        },
        {
            "bufferView" : 13,
            "componentType" : 5123,
            "count" : 1053,
            "type" : "SCALAR"
        },
        {
            "bufferView" : 15,
            "componentType" : 5126,
            "count" : 14,
            "max" : [
                -0.3366868197917938,
                3.310178756713867,
                1.2625346183776855
            ],
            "min" : [
                -1.2878446578979492,
                0.28702032566070557,
                -1.1969252824783325
            ],
            "type" : "VEC3"
        },
        {
            "bufferView" : 16,
            "componentType" : 5126,
            "count" : 14,
            "type" : "VEC3"
        },
        {
            "bufferView" : 17,
            "componentType" : 5126,
            "count" : 14,
            "type" : "VEC2"
        },
        {
            "bufferView" : 18,
            "componentType" : 5123,
            "count" : 30,
            "type" : "SCALAR"
        },
        {
            "bufferView" : 20,
            "componentType" : 5126,
            "count" : 534,
            "max" : [
                -0.29844504594802856,
                3.390953779220581,
                1.5815292596817017
            ],
            "min" : [
                -1.6342172622680664,
                0.147414892911911,
                -1.3818520307540894
            ],
            "type" : "VEC3"
        },
        {
            "bufferView" : 21,
            "componentType" : 5126,
            "count" : 534,
            "type" : "VEC3"
        },
        {
            "bufferView" : 22,
            "componentType" : 5126,
            "count" : 534,
            "type" : "VEC2"
        },
        {
            "bufferView" : 23,
            "componentType" : 5123,
            "count" : 834,
            "type" : "SCALAR"
        },
        {
            "bufferView" : 25,
            "componentType" : 5126,
            "count" : 5247,
            "max" : [
                1.3640577793121338,
                4.665952682495117,
                1.36399507522583
            ],
            "min" : [
                -1.3918142318725586,
                -0.19986717402935028,
                -1.4052319526672363
            ],
            "type" : "VEC3"
        },
        {
            "bufferView" : 26,
            "componentType" : 5126,
            "count" : 5247,
            "type" : "VEC3"
        },
        {
            "bufferView" : 27,
            "componentType" : 5126,
            "count" : 5247,
            "type" : "VEC2"
        },
        {
            "bufferView" : 28,
            "componentType" : 5123,
            "count" : 7746,
            "type" : "SCALAR"
        },
        {
            "bufferView" : 30,
            "componentType" : 5126,
            "count" : 1060,
            "max" : [
                0.3302006721496582,
                5.131633281707764,
                1.7038192749023438
            ],
            "min" : [
                -1.7595263719558716,
                1.3483266830444336,
                0.3141884207725525
            ],
            "type" : "VEC3"
        },
        {
            "bufferView" : 31,
            "componentType" : 5126,
            "count" : 1060,
            "type" : "VEC3"
        },
        {
            "bufferView" : 32,
            "componentType" : 5126,
            "count" : 1060,
            "type" : "VEC2"
        },
        {
            "bufferView" : 33,
            "componentType" : 5123,
            "count" : 1698,
            "type" : "SCALAR"
        },
        {
            "bufferView" : 35,
            "componentType" : 5126,
            "count" : 569,
            "max" : [
                1.5432618856430054,
                5.40000057220459,
                1.5516057014465332
            ],
            "min" : [
                -1.6168473958969116,
                0.003153756260871887,
                -1.5624784231185913
            ],
            "type" : "VEC3"
        },
        {
            "bufferView" : 36,
            "componentType" : 5126,
            "count" : 569,
            "type" : "VEC3"
        },
        {
            "bufferView" : 37,
            "componentType" : 5126,
            "count" : 569,
            "type" : "VEC2"
        },
        {
            "bufferView" : 38,
            "componentType" : 5123,
            "count" : 861,
            "type" : "SCALAR"
        }
    ],
    "bufferViews" : [
        {
            "buffer" : 0,
            "byteLength" : 1464,
            "byteOffset" : 0
        },
        {
            "buffer" : 0,
            "byteLength" : 1464,
            "byteOffset" : 1464
        },
        {
            "buffer" : 0,
            "byteLength" : 976,
            "byteOffset" : 2928
        },
        {
            "buffer" : 0,
            "byteLength" : 432,
            "byteOffset" : 3904
        },
        {
            "buffer" : 0,
            "byteLength" : 176,
            "byteOffset" : 4336
        },
        {
            "buffer" : 0,
            "byteLength" : 6648,
            "byteOffset" : 4512
        },
        {
            "buffer" : 0,
            "byteLength" : 6648,
            "byteOffset" : 11160
        },
        {
            "buffer" : 0,
            "byteLength" : 4432,
            "byteOffset" : 17808
        },
        {
            "buffer" : 0,
            "byteLength" : 1872,
            "byteOffset" : 22240
        },
        {
            "buffer" : 0,
            "byteLength" : 366,
            "byteOffset" : 24112
        },
        {
            "buffer" : 0,
            "byteLength" : 8244,
            "byteOffset" : 24480
        },
        {
            "buffer" : 0,
            "byteLength" : 8244,
            "byteOffset" : 32724
        },
        {
            "buffer" : 0,
            "byteLength" : 5496,
            "byteOffset" : 40968
        },
        {
            "buffer" : 0,
            "byteLength" : 2106,
            "byteOffset" : 46464
        },
        {
            "buffer" : 0,
            "byteLength" : 300,
            "byteOffset" : 48572
        },
        {
            "buffer" : 0,
            "byteLength" : 168,
            "byteOffset" : 48872
        },
        {
            "buffer" : 0,
            "byteLength" : 168,
            "byteOffset" : 49040
        },
        {
            "buffer" : 0,
            "byteLength" : 112,
            "byteOffset" : 49208
        },
        {
            "buffer" : 0,
            "byteLength" : 60,
            "byteOffset" : 49320
        },
        {
            "buffer" : 0,
            "byteLength" : 302,
            "byteOffset" : 49380
        },
        {
            "buffer" : 0,
            "byteLength" : 6408,
            "byteOffset" : 49684
        },
        {
            "buffer" : 0,
            "byteLength" : 6408,
            "byteOffset" : 56092
        },
        {
            "buffer" : 0,
            "byteLength" : 4272,
            "byteOffset" : 62500
        },
        {
            "buffer" : 0,
            "byteLength" : 1668,
            "byteOffset" : 66772
        },
        {
            "buffer" : 0,
            "byteLength" : 571,
            "byteOffset" : 68440
        },
        {
            "buffer" : 0,
            "byteLength" : 62964,
            "byteOffset" : 69012
        },
        {
            "buffer" : 0,
            "byteLength" : 62964,
            "byteOffset" : 131976
        },
        {
            "buffer" : 0,
            "byteLength" : 41976,
            "byteOffset" : 194940
        },
        {
            "buffer" : 0,
            "byteLength" : 15492,
            "byteOffset" : 236916
        },
        {
            "buffer" : 0,
            "byteLength" : 331,
            "byteOffset" : 252408
        },
        {
            "buffer" : 0,
            "byteLength" : 12720,
            "byteOffset" : 252740
        },
        {
            "buffer" : 0,
            "byteLength" : 12720,
            "byteOffset" : 265460
        },
        {
            "buffer" : 0,
            "byteLength" : 8480,
            "byteOffset" : 278180
        },
        {
            "buffer" : 0,
            "byteLength" : 3396,
            "byteOffset" : 286660
        },
        {
            "buffer" : 0,
            "byteLength" : 522,
            "byteOffset" : 290056
        },
        {
            "buffer" : 0,
            "byteLength" : 6828,
            "byteOffset" : 290580
        },
        {
            "buffer" : 0,
            "byteLength" : 6828,
            "byteOffset" : 297408
        },
        {
            "buffer" : 0,
            "byteLength" : 4552,
            "byteOffset" : 304236
        },
        {
            "buffer" : 0,
            "byteLength" : 1722,
            "byteOffset" : 308788
        },
        {
            "buffer" : 0,
            "byteLength" : 144,
            "byteOffset" : 310512
        }
    ],
    "samplers" : [
        {
            "magFilter" : 9728,
            "minFilter" : 9984
        }
    ],
    "buffers" : [
        {
            "byteLength" : 310656,
            "uri" : "data:application/octet-stream;base64,"
        }
    ]
}
