{
    "asset" : {
        "generator" : "Khronos glTF Blender I/O v1.6.16",
        "version" : "2.0"
    },
    "scene" : 0,
    "scenes" : [
        {
            "name" : "Scene",
            "nodes" : [
                0
            ]
        }
    ],
    "nodes" : [
        {
            "mesh" : 0,
            "name" : "to_gordon-col",
            "translation" : [
                -26.822425842285156,
                -70.04656219482422,
                -1.7156543731689453
            ]
        }
    ],
    "materials" : [
        {
            "alphaCutoff" : 0.5,
            "alphaMode" : "MASK",
            "name" : "grass-top.013",
            "pbrMetallicRoughness" : {
                "baseColorTexture" : {
                    "index" : 0
                },
                "metallicFactor" : 0,
                "roughnessFactor" : 0.6000000238418579
            }
        },
        {
            "alphaCutoff" : 0.5,
            "alphaMode" : "MASK",
            "name" : "sandstone.017",
            "pbrMetallicRoughness" : {
                "baseColorTexture" : {
                    "index" : 1
                },
                "metallicFactor" : 0
            }
        },
        {
            "alphaCutoff" : 0.5,
            "alphaMode" : "MASK",
            "name" : "white_tile_wall",
            "pbrMetallicRoughness" : {
                "baseColorTexture" : {
                    "index" : 2
                },
                "metallicFactor" : 0,
                "roughnessFactor" : 0.5
            }
        },
        {
            "alphaCutoff" : 0.5,
            "alphaMode" : "MASK",
            "name" : "white_tile_drop_ceiling",
            "pbrMetallicRoughness" : {
                "baseColorTexture" : {
                    "index" : 3
                },
                "metallicFactor" : 0,
                "roughnessFactor" : 0.5
            }
        },
        {
            "alphaCutoff" : 0.5,
            "alphaMode" : "MASK",
            "name" : "white_tile_floor",
            "pbrMetallicRoughness" : {
                "baseColorTexture" : {
                    "index" : 4
                },
                "metallicFactor" : 0,
                "roughnessFactor" : 0.22934472560882568
            }
        }
    ],
    "meshes" : [
        {
            "name" : "entryway.005",
            "primitives" : [
                {
                    "attributes" : {
                        "POSITION" : 0,
                        "NORMAL" : 1,
                        "TEXCOORD_0" : 2
                    },
                    "indices" : 3,
                    "material" : 0
                },
                {
                    "attributes" : {
                        "POSITION" : 4,
                        "NORMAL" : 5,
                        "TEXCOORD_0" : 6
                    },
                    "indices" : 7,
                    "material" : 1
                },
                {
                    "attributes" : {
                        "POSITION" : 8,
                        "NORMAL" : 9,
                        "TEXCOORD_0" : 10
                    },
                    "indices" : 11,
                    "material" : 2
                },
                {
                    "attributes" : {
                        "POSITION" : 12,
                        "NORMAL" : 13,
                        "TEXCOORD_0" : 14
                    },
                    "indices" : 15,
                    "material" : 3
                },
                {
                    "attributes" : {
                        "POSITION" : 16,
                        "NORMAL" : 17,
                        "TEXCOORD_0" : 18
                    },
                    "indices" : 19,
                    "material" : 4
                }
            ]
        }
    ],
    "textures" : [
        {
            "sampler" : 0,
            "source" : 0
        },
        {
            "sampler" : 0,
            "source" : 1
        },
        {
            "sampler" : 0,
            "source" : 2
        },
        {
            "sampler" : 0,
            "source" : 3
        },
        {
            "sampler" : 0,
            "source" : 4
        }
    ],
    "images" : [
        {
            "bufferView" : 4,
            "mimeType" : "image/png",
            "name" : "grass-top"
        },
        {
            "bufferView" : 9,
            "mimeType" : "image/png",
            "name" : "sandstone"
        },
        {
            "bufferView" : 14,
            "mimeType" : "image/png",
            "name" : "white_tile_wall"
        },
        {
            "bufferView" : 19,
            "mimeType" : "image/png",
            "name" : "white_tile_drop_ceiling"
        },
        {
            "bufferView" : 24,
            "mimeType" : "image/png",
            "name" : "white_tile_floor"
        }
    ],
    "accessors" : [
        {
            "bufferView" : 0,
            "componentType" : 5126,
            "count" : 9,
            "max" : [
                -22.562238693237305,
                -0.545074462890625,
                -14.613201141357422
            ],
            "min" : [
                -24.748252868652344,
                -0.5450748205184937,
                -19.10999298095703
            ],
            "type" : "VEC3"
        },
        {
            "bufferView" : 1,
            "componentType" : 5126,
            "count" : 9,
            "type" : "VEC3"
        },
        {
            "bufferView" : 2,
            "componentType" : 5126,
            "count" : 9,
            "type" : "VEC2"
        },
        {
            "bufferView" : 3,
            "componentType" : 5123,
            "count" : 21,
            "type" : "SCALAR"
        },
        {
            "bufferView" : 5,
            "componentType" : 5126,
            "count" : 277,
            "max" : [
                -22.561382293701172,
                17.852275848388672,
                -12.742006301879883
            ],
            "min" : [
                -30.19639015197754,
                -0.8873453140258789,
                -46.04440689086914
            ],
            "type" : "VEC3"
        },
        {
            "bufferView" : 6,
            "componentType" : 5126,
            "count" : 277,
            "type" : "VEC3"
        },
        {
            "bufferView" : 7,
            "componentType" : 5126,
            "count" : 277,
            "type" : "VEC2"
        },
        {
            "bufferView" : 8,
            "componentType" : 5123,
            "count" : 471,
            "type" : "SCALAR"
        },
        {
            "bufferView" : 10,
            "componentType" : 5126,
            "count" : 253,
            "max" : [
                -21.843175888061523,
                21.750244140625,
                -2.8768491744995117
            ],
            "min" : [
                -29.895179748535156,
                -0.425508975982666,
                -48.33539581298828
            ],
            "type" : "VEC3"
        },
        {
            "bufferView" : 11,
            "componentType" : 5126,
            "count" : 253,
            "type" : "VEC3"
        },
        {
            "bufferView" : 12,
            "componentType" : 5126,
            "count" : 253,
            "type" : "VEC2"
        },
        {
            "bufferView" : 13,
            "componentType" : 5123,
            "count" : 441,
            "type" : "SCALAR"
        },
        {
            "bufferView" : 15,
            "componentType" : 5126,
            "count" : 182,
            "max" : [
                -21.843175888061523,
                21.750244140625,
                -9.435014724731445
            ],
            "min" : [
                -29.88841438293457,
                15.233909606933594,
                -48.33539581298828
            ],
            "type" : "VEC3"
        },
        {
            "bufferView" : 16,
            "componentType" : 5126,
            "count" : 182,
            "type" : "VEC3"
        },
        {
            "bufferView" : 17,
            "componentType" : 5126,
            "count" : 182,
            "type" : "VEC2"
        },
        {
            "bufferView" : 18,
            "componentType" : 5123,
            "count" : 276,
            "type" : "SCALAR"
        },
        {
            "bufferView" : 20,
            "componentType" : 5126,
            "count" : 46,
            "max" : [
                -22.68175506591797,
                13.422335624694824,
                -2.8768491744995117
            ],
            "min" : [
                -29.895179748535156,
                -0.425508975982666,
                -48.33539581298828
            ],
            "type" : "VEC3"
        },
        {
            "bufferView" : 21,
            "componentType" : 5126,
            "count" : 46,
            "type" : "VEC3"
        },
        {
            "bufferView" : 22,
            "componentType" : 5126,
            "count" : 46,
            "type" : "VEC2"
        },
        {
            "bufferView" : 23,
            "componentType" : 5123,
            "count" : 90,
            "type" : "SCALAR"
        }
    ],
    "bufferViews" : [
        {
            "buffer" : 0,
            "byteLength" : 108,
            "byteOffset" : 0
        },
        {
            "buffer" : 0,
            "byteLength" : 108,
            "byteOffset" : 108
        },
        {
            "buffer" : 0,
            "byteLength" : 72,
            "byteOffset" : 216
        },
        {
            "buffer" : 0,
            "byteLength" : 42,
            "byteOffset" : 288
        },
        {
            "buffer" : 0,
            "byteLength" : 654,
            "byteOffset" : 332
        },
        {
            "buffer" : 0,
            "byteLength" : 3324,
            "byteOffset" : 988
        },
        {
            "buffer" : 0,
            "byteLength" : 3324,
            "byteOffset" : 4312
        },
        {
            "buffer" : 0,
            "byteLength" : 2216,
            "byteOffset" : 7636
        },
        {
            "buffer" : 0,
            "byteLength" : 942,
            "byteOffset" : 9852
        },
        {
            "buffer" : 0,
            "byteLength" : 544,
            "byteOffset" : 10796
        },
        {
            "buffer" : 0,
            "byteLength" : 3036,
            "byteOffset" : 11340
        },
        {
            "buffer" : 0,
            "byteLength" : 3036,
            "byteOffset" : 14376
        },
        {
            "buffer" : 0,
            "byteLength" : 2024,
            "byteOffset" : 17412
        },
        {
            "buffer" : 0,
            "byteLength" : 882,
            "byteOffset" : 19436
        },
        {
            "buffer" : 0,
            "byteLength" : 165,
            "byteOffset" : 20320
        },
        {
            "buffer" : 0,
            "byteLength" : 2184,
            "byteOffset" : 20488
        },
        {
            "buffer" : 0,
            "byteLength" : 2184,
            "byteOffset" : 22672
        },
        {
            "buffer" : 0,
            "byteLength" : 1456,
            "byteOffset" : 24856
        },
        {
            "buffer" : 0,
            "byteLength" : 552,
            "byteOffset" : 26312
        },
        {
            "buffer" : 0,
            "byteLength" : 227,
            "byteOffset" : 26864
        },
        {
            "buffer" : 0,
            "byteLength" : 552,
            "byteOffset" : 27092
        },
        {
            "buffer" : 0,
            "byteLength" : 552,
            "byteOffset" : 27644
        },
        {
            "buffer" : 0,
            "byteLength" : 368,
            "byteOffset" : 28196
        },
        {
            "buffer" : 0,
            "byteLength" : 180,
            "byteOffset" : 28564
        },
        {
            "buffer" : 0,
            "byteLength" : 137,
            "byteOffset" : 28744
        }
    ],
    "samplers" : [
        {
            "magFilter" : 9728,
            "minFilter" : 9984
        }
    ],
    "buffers" : [
        {
            "byteLength" : 28884,
            "uri" : "data:application/octet-stream;base64,"
        }
    ]
}
