{
    "asset" : {
        "generator" : "Khronos glTF Blender I/O v1.6.16",
        "version" : "2.0"
    },
    "scene" : 0,
    "scenes" : [
        {
            "name" : "Scene",
            "nodes" : [
                0
            ]
        }
    ],
    "nodes" : [
        {
            "mesh" : 0,
            "name" : "weapon_pedistile",
            "translation" : [
                -103.91658020019531,
                -56.278812408447266,
                -11.737680435180664
            ]
        }
    ],
    "materials" : [
        {
            "alphaCutoff" : 0.5,
            "alphaMode" : "MASK",
            "name" : "machine",
            "pbrMetallicRoughness" : {
                "baseColorTexture" : {
                    "index" : 0
                }
            }
        },
        {
            "alphaCutoff" : 0.5,
            "alphaMode" : "MASK",
            "name" : "darkness",
            "pbrMetallicRoughness" : {
                "baseColorTexture" : {
                    "index" : 1
                },
                "metallicFactor" : 0,
                "roughnessFactor" : 0
            }
        },
        {
            "alphaCutoff" : 0.5,
            "alphaMode" : "MASK",
            "name" : "red_clean",
            "pbrMetallicRoughness" : {
                "baseColorTexture" : {
                    "index" : 2
                },
                "roughnessFactor" : 0.7421650290489197
            }
        },
        {
            "alphaCutoff" : 0.5,
            "alphaMode" : "MASK",
            "name" : "blue_dirty",
            "pbrMetallicRoughness" : {
                "baseColorTexture" : {
                    "index" : 3
                },
                "metallicFactor" : 0,
                "roughnessFactor" : 0.9159544110298157
            }
        }
    ],
    "meshes" : [
        {
            "name" : "Cylinder.002",
            "primitives" : [
                {
                    "attributes" : {
                        "POSITION" : 0,
                        "NORMAL" : 1,
                        "TEXCOORD_0" : 2
                    },
                    "indices" : 3,
                    "material" : 0
                },
                {
                    "attributes" : {
                        "POSITION" : 4,
                        "NORMAL" : 5,
                        "TEXCOORD_0" : 6
                    },
                    "indices" : 7,
                    "material" : 1
                },
                {
                    "attributes" : {
                        "POSITION" : 8,
                        "NORMAL" : 9,
                        "TEXCOORD_0" : 10
                    },
                    "indices" : 11,
                    "material" : 2
                },
                {
                    "attributes" : {
                        "POSITION" : 12,
                        "NORMAL" : 13,
                        "TEXCOORD_0" : 14
                    },
                    "indices" : 15,
                    "material" : 3
                }
            ]
        }
    ],
    "textures" : [
        {
            "sampler" : 0,
            "source" : 0
        },
        {
            "sampler" : 0,
            "source" : 1
        },
        {
            "sampler" : 0,
            "source" : 2
        },
        {
            "sampler" : 0,
            "source" : 3
        }
    ],
    "images" : [
        {
            "bufferView" : 4,
            "mimeType" : "image/png",
            "name" : "machine"
        },
        {
            "bufferView" : 9,
            "mimeType" : "image/png",
            "name" : "darkness"
        },
        {
            "bufferView" : 14,
            "mimeType" : "image/png",
            "name" : "red_clean"
        },
        {
            "bufferView" : 19,
            "mimeType" : "image/png",
            "name" : "blue_dirty"
        }
    ],
    "accessors" : [
        {
            "bufferView" : 0,
            "componentType" : 5126,
            "count" : 7,
            "max" : [
                0.020810537040233612,
                -0.028378523886203766,
                0.019231827929615974
            ],
            "min" : [
                -0.020810537040233612,
                -0.028378523886203766,
                -0.021345719695091248
            ],
            "type" : "VEC3"
        },
        {
            "bufferView" : 1,
            "componentType" : 5126,
            "count" : 7,
            "type" : "VEC3"
        },
        {
            "bufferView" : 2,
            "componentType" : 5126,
            "count" : 7,
            "type" : "VEC2"
        },
        {
            "bufferView" : 3,
            "componentType" : 5123,
            "count" : 15,
            "type" : "SCALAR"
        },
        {
            "bufferView" : 5,
            "componentType" : 5126,
            "count" : 7,
            "max" : [
                0.03046649694442749,
                -0.03870122507214546,
                0.02815527655184269
            ],
            "min" : [
                -0.03046649694442749,
                -0.03870122507214546,
                -0.03125
            ],
            "type" : "VEC3"
        },
        {
            "bufferView" : 6,
            "componentType" : 5126,
            "count" : 7,
            "type" : "VEC3"
        },
        {
            "bufferView" : 7,
            "componentType" : 5126,
            "count" : 7,
            "type" : "VEC2"
        },
        {
            "bufferView" : 8,
            "componentType" : 5123,
            "count" : 15,
            "type" : "SCALAR"
        },
        {
            "bufferView" : 10,
            "componentType" : 5126,
            "count" : 28,
            "max" : [
                0.025157354772090912,
                -0.025224704295396805,
                0.023248892277479172
            ],
            "min" : [
                -0.025157354772090912,
                -0.028378523886203766,
                -0.025804324075579643
            ],
            "type" : "VEC3"
        },
        {
            "bufferView" : 11,
            "componentType" : 5126,
            "count" : 28,
            "type" : "VEC3"
        },
        {
            "bufferView" : 12,
            "componentType" : 5126,
            "count" : 28,
            "type" : "VEC2"
        },
        {
            "bufferView" : 13,
            "componentType" : 5123,
            "count" : 42,
            "type" : "SCALAR"
        },
        {
            "bufferView" : 15,
            "componentType" : 5126,
            "count" : 56,
            "max" : [
                0.03046649694442749,
                -0.025224704295396805,
                0.02815527655184269
            ],
            "min" : [
                -0.03046649694442749,
                -0.03870122507214546,
                -0.03125
            ],
            "type" : "VEC3"
        },
        {
            "bufferView" : 16,
            "componentType" : 5126,
            "count" : 56,
            "type" : "VEC3"
        },
        {
            "bufferView" : 17,
            "componentType" : 5126,
            "count" : 56,
            "type" : "VEC2"
        },
        {
            "bufferView" : 18,
            "componentType" : 5123,
            "count" : 84,
            "type" : "SCALAR"
        }
    ],
    "bufferViews" : [
        {
            "buffer" : 0,
            "byteLength" : 84,
            "byteOffset" : 0
        },
        {
            "buffer" : 0,
            "byteLength" : 84,
            "byteOffset" : 84
        },
        {
            "buffer" : 0,
            "byteLength" : 56,
            "byteOffset" : 168
        },
        {
            "buffer" : 0,
            "byteLength" : 30,
            "byteOffset" : 224
        },
        {
            "buffer" : 0,
            "byteLength" : 571,
            "byteOffset" : 256
        },
        {
            "buffer" : 0,
            "byteLength" : 84,
            "byteOffset" : 828
        },
        {
            "buffer" : 0,
            "byteLength" : 84,
            "byteOffset" : 912
        },
        {
            "buffer" : 0,
            "byteLength" : 56,
            "byteOffset" : 996
        },
        {
            "buffer" : 0,
            "byteLength" : 30,
            "byteOffset" : 1052
        },
        {
            "buffer" : 0,
            "byteLength" : 302,
            "byteOffset" : 1084
        },
        {
            "buffer" : 0,
            "byteLength" : 336,
            "byteOffset" : 1388
        },
        {
            "buffer" : 0,
            "byteLength" : 336,
            "byteOffset" : 1724
        },
        {
            "buffer" : 0,
            "byteLength" : 224,
            "byteOffset" : 2060
        },
        {
            "buffer" : 0,
            "byteLength" : 84,
            "byteOffset" : 2284
        },
        {
            "buffer" : 0,
            "byteLength" : 331,
            "byteOffset" : 2368
        },
        {
            "buffer" : 0,
            "byteLength" : 672,
            "byteOffset" : 2700
        },
        {
            "buffer" : 0,
            "byteLength" : 672,
            "byteOffset" : 3372
        },
        {
            "buffer" : 0,
            "byteLength" : 448,
            "byteOffset" : 4044
        },
        {
            "buffer" : 0,
            "byteLength" : 168,
            "byteOffset" : 4492
        },
        {
            "buffer" : 0,
            "byteLength" : 366,
            "byteOffset" : 4660
        }
    ],
    "samplers" : [
        {
            "magFilter" : 9728,
            "minFilter" : 9984
        }
    ],
    "buffers" : [
        {
            "byteLength" : 5028,
            "uri" : "data:application/octet-stream;base64,"
        }
    ]
}
